# This file uses centimeters as units for non-parametric coordinates.

mtllib delorean_tire.mtl
g default
v 0.018985 0.000358 -0.000125
v 0.020263 -0.050644 -0.013661
v 0.020263 -0.050579 0.013653
v 0.020263 -0.036865 0.037276
v 0.020263 -0.013178 0.050877
v 0.020263 0.014137 0.050812
v 0.020263 0.037759 0.037098
v 0.020263 0.051360 0.013411
v 0.020263 0.051295 -0.013904
v 0.020263 0.037581 -0.037526
v 0.020263 0.013894 -0.051127
v 0.020263 -0.013420 -0.051062
v 0.020263 -0.037043 -0.037348
v 0.020263 -0.050644 -0.013661
v -0.019267 -0.050644 -0.013661
v -0.019267 -0.050579 0.013653
v 0.020263 -0.050644 -0.013661
v 0.020263 -0.050579 0.013653
v 0.020263 -0.050579 0.013653
v -0.019267 -0.050579 0.013653
v -0.019267 -0.036865 0.037276
v 0.020263 -0.050579 0.013653
v 0.020263 -0.036865 0.037276
v 0.020263 -0.036865 0.037276
v -0.019267 -0.036865 0.037276
v -0.019267 -0.013178 0.050877
v 0.020263 -0.036865 0.037276
v 0.020263 -0.013178 0.050877
v 0.020263 -0.013178 0.050877
v -0.019267 -0.013178 0.050877
v -0.019267 0.014137 0.050812
v 0.020263 -0.013178 0.050877
v 0.020263 0.014137 0.050812
v 0.020263 0.014137 0.050812
v -0.019267 0.014137 0.050812
v -0.019267 0.037759 0.037098
v 0.020263 0.014137 0.050812
v 0.020263 0.037759 0.037098
v 0.020263 0.037759 0.037098
v -0.019267 0.037759 0.037098
v -0.019267 0.051360 0.013411
v 0.020263 0.037759 0.037098
v 0.020263 0.051360 0.013411
v 0.020263 0.051360 0.013411
v -0.019267 0.051360 0.013411
v -0.019267 0.051295 -0.013904
v 0.020263 0.051360 0.013411
v 0.020263 0.051295 -0.013904
v 0.020263 0.051295 -0.013904
v -0.019267 0.051295 -0.013904
v -0.019267 0.037581 -0.037526
v 0.020263 0.051295 -0.013904
v 0.020263 0.037581 -0.037526
v 0.020263 0.037581 -0.037526
v -0.019267 0.037581 -0.037526
v -0.019267 0.013894 -0.051127
v 0.020263 0.037581 -0.037526
v 0.020263 0.013894 -0.051127
v 0.020263 0.013894 -0.051127
v -0.019267 0.013894 -0.051127
v -0.019267 -0.013420 -0.051062
v 0.020263 0.013894 -0.051127
v 0.020263 -0.013420 -0.051062
v 0.020263 -0.013420 -0.051062
v -0.019267 -0.013420 -0.051062
v -0.019267 -0.037043 -0.037348
v 0.020263 -0.013420 -0.051062
v 0.020263 -0.037043 -0.037348
v 0.020263 -0.037043 -0.037348
v -0.019267 -0.037043 -0.037348
v -0.019267 -0.050644 -0.013661
v 0.020263 -0.037043 -0.037348
v -0.019267 -0.050644 -0.013661
v 0.020263 -0.050644 -0.013661
v -0.019267 -0.050644 -0.013661
v -0.021549 -0.034082 -0.009266
v -0.021549 -0.034038 0.009179
v -0.019267 -0.050644 -0.013661
v -0.019267 -0.050579 0.013653
v -0.019267 -0.050579 0.013653
v -0.021549 -0.024778 0.025131
v -0.019267 -0.050579 0.013653
v -0.019267 -0.036865 0.037276
v -0.019267 -0.036865 0.037276
v -0.021549 -0.008782 0.034315
v -0.019267 -0.036865 0.037276
v -0.019267 -0.013178 0.050877
v -0.019267 -0.013178 0.050877
v -0.021549 0.009662 0.034271
v -0.019267 -0.013178 0.050877
v -0.019267 0.014137 0.050812
v -0.019267 0.014137 0.050812
v -0.021549 0.025614 0.025011
v -0.019267 0.014137 0.050812
v -0.019267 0.037759 0.037098
v -0.019267 0.037759 0.037098
v -0.021549 0.034798 0.009015
v -0.019267 0.037759 0.037098
v -0.019267 0.051360 0.013411
v -0.019267 0.051360 0.013411
v -0.021549 0.034754 -0.009429
v -0.019267 0.051360 0.013411
v -0.019267 0.051295 -0.013904
v -0.019267 0.051295 -0.013904
v -0.021549 0.025494 -0.025381
v -0.019267 0.051295 -0.013904
v -0.019267 0.037581 -0.037526
v -0.019267 0.037581 -0.037526
v -0.021549 0.009498 -0.034565
v -0.019267 0.037581 -0.037526
v -0.019267 0.013894 -0.051127
v -0.019267 0.013894 -0.051127
v -0.021549 -0.008946 -0.034521
v -0.019267 0.013894 -0.051127
v -0.019267 -0.013420 -0.051062
v -0.019267 -0.013420 -0.051062
v -0.021549 -0.024898 -0.025261
v -0.019267 -0.013420 -0.051062
v -0.019267 -0.037043 -0.037348
v -0.019267 -0.037043 -0.037348
v -0.019267 -0.037043 -0.037348
v -0.019267 -0.050644 -0.013661
v -0.012179 -0.014886 -0.004171
v -0.012179 -0.014867 0.003993
v -0.012179 -0.010768 0.011054
v -0.012179 -0.003688 0.015119
v -0.012179 0.004476 0.015100
v -0.012179 0.011537 0.011001
v -0.012179 0.015602 0.003921
v -0.012179 0.015583 -0.004243
v -0.012179 0.011484 -0.011304
v -0.012179 0.004404 -0.015369
v -0.012179 -0.003760 -0.015350
v -0.012179 -0.010821 -0.011251
v -0.012179 0.000358 -0.000125
vt 0.159466 0.292927
vt 0.310566 0.252007
vt 0.310524 0.331193
vt 0.270896 0.397854
vt 0.202299 0.436937
vt 0.123113 0.436896
vt 0.054557 0.397741
vt 0.015000 0.331039
vt 0.015041 0.251853
vt 0.054670 0.183297
vt 0.123267 0.143740
vt 0.202453 0.143781
vt 0.271009 0.183410
vt 0.836581 0.737964
vt 0.737046 0.737964
vt 0.737046 0.844225
vt 0.836581 0.737964
vt 0.836581 0.844225
vt 0.836581 0.739836
vt 0.737046 0.739836
vt 0.737046 0.842363
vt 0.836581 0.739836
vt 0.836581 0.842363
vt 0.836581 0.737965
vt 0.737046 0.737965
vt 0.737046 0.844226
vt 0.836581 0.737965
vt 0.836581 0.844226
vt 0.836581 0.739835
vt 0.737046 0.739835
vt 0.737046 0.842363
vt 0.836581 0.739835
vt 0.836581 0.842363
vt 0.836581 0.737965
vt 0.737046 0.737965
vt 0.737046 0.844222
vt 0.836581 0.737965
vt 0.836581 0.844222
vt 0.836581 0.739839
vt 0.737046 0.739839
vt 0.737046 0.842362
vt 0.836581 0.739839
vt 0.836581 0.842362
vt 0.836581 0.737966
vt 0.737046 0.737966
vt 0.737046 0.844223
vt 0.836581 0.737966
vt 0.836581 0.844223
vt 0.836581 0.739838
vt 0.737046 0.739838
vt 0.737046 0.842361
vt 0.836581 0.739838
vt 0.836581 0.842361
vt 0.836581 0.737967
vt 0.737046 0.737967
vt 0.737046 0.844223
vt 0.836581 0.737967
vt 0.836581 0.844223
vt 0.836581 0.739838
vt 0.737046 0.739838
vt 0.737046 0.842365
vt 0.836581 0.739838
vt 0.836581 0.842365
vt 0.836581 0.737963
vt 0.737046 0.737963
vt 0.737046 0.844224
vt 0.836581 0.737963
vt 0.836581 0.844224
vt 0.836581 0.739837
vt 0.737046 0.739837
vt 0.737046 0.842364
vt 0.836581 0.739837
vt 0.737046 0.842364
vt 0.836581 0.842364
vt 0.310566 0.252007
vt 0.266439 0.263806
vt 0.266410 0.319348
vt 0.310566 0.252007
vt 0.310524 0.331193
vt 0.310524 0.331193
vt 0.238614 0.365538
vt 0.310524 0.331193
vt 0.270896 0.397854
vt 0.270896 0.397854
vt 0.190500 0.392810
vt 0.270896 0.397854
vt 0.202299 0.436937
vt 0.202299 0.436937
vt 0.134958 0.392781
vt 0.202299 0.436937
vt 0.123113 0.436896
vt 0.123113 0.436896
vt 0.086872 0.365459
vt 0.123113 0.436896
vt 0.054557 0.397741
vt 0.054557 0.397741
vt 0.059126 0.319240
vt 0.054557 0.397741
vt 0.015000 0.331039
vt 0.015000 0.331039
vt 0.059155 0.263698
vt 0.015000 0.331039
vt 0.015041 0.251853
vt 0.015041 0.251853
vt 0.086951 0.215612
vt 0.015041 0.251853
vt 0.054670 0.183297
vt 0.054670 0.183297
vt 0.135066 0.187866
vt 0.054670 0.183297
vt 0.123267 0.143740
vt 0.123267 0.143740
vt 0.190608 0.187895
vt 0.123267 0.143740
vt 0.202453 0.143781
vt 0.202453 0.143781
vt 0.238694 0.215691
vt 0.202453 0.143781
vt 0.271009 0.183410
vt 0.271009 0.183410
vt 0.271009 0.183410
vt 0.310566 0.252007
vt 0.199734 0.282159
vt 0.199723 0.303736
vt 0.188925 0.322416
vt 0.170233 0.332371
vt 0.148657 0.332360
vt 0.129976 0.322386
vt 0.119198 0.303694
vt 0.119209 0.282117
vt 0.130007 0.263437
vt 0.148699 0.252659
vt 0.170275 0.252670
vt 0.188956 0.263468
vt 0.159466 0.292927
vn -1.000000 0.000000 0.000000
vn -0.999707 -0.023415 -0.006214
vn -0.999707 -0.023385 0.006326
vn -1.000000 0.000000 0.000000
vn -0.999707 -0.023385 0.006326
vn -0.999707 -0.017089 0.017171
vn -1.000000 0.000000 0.000000
vn -0.999707 -0.017089 0.017171
vn -0.999707 -0.006214 0.023415
vn -1.000000 0.000000 0.000000
vn -0.999707 -0.006214 0.023415
vn -0.999707 0.006326 0.023385
vn -1.000000 0.000000 0.000000
vn -0.999707 0.006326 0.023385
vn -0.999707 0.017171 0.017089
vn -1.000000 0.000000 0.000000
vn -0.999707 0.017171 0.017089
vn -0.999707 0.023415 0.006214
vn -1.000000 0.000000 0.000000
vn -0.999707 0.023415 0.006214
vn -0.999707 0.023385 -0.006326
vn -1.000000 0.000000 0.000000
vn -0.999707 0.023385 -0.006326
vn -0.999707 0.017089 -0.017171
vn -1.000000 0.000000 0.000000
vn -0.999707 0.017089 -0.017171
vn -0.999707 0.006214 -0.023415
vn -1.000000 0.000000 0.000000
vn -0.999707 0.006214 -0.023415
vn -0.999707 -0.006326 -0.023385
vn -1.000000 0.000000 0.000000
vn -0.999707 -0.006326 -0.023385
vn -0.999707 -0.017171 -0.017089
vn -1.000000 0.000000 0.000000
vn -0.999707 -0.017171 -0.017089
vn -0.999707 -0.023415 -0.006214
vn 0.000000 0.999997 -0.002381
vn 0.000000 0.999997 -0.002381
vn 0.000000 0.999997 -0.002381
vn 0.000000 0.999997 -0.002380
vn 0.000000 0.999997 -0.002380
vn 0.000000 0.999997 -0.002380
vn 0.000000 0.864833 -0.502059
vn 0.000000 0.864833 -0.502059
vn 0.000000 0.864833 -0.502059
vn 0.000000 0.864833 -0.502060
vn 0.000000 0.864833 -0.502060
vn 0.000000 0.864833 -0.502060
vn 0.000000 0.497937 -0.867213
vn 0.000000 0.497937 -0.867213
vn 0.000000 0.497937 -0.867213
vn 0.000000 0.497937 -0.867213
vn 0.000000 0.497937 -0.867213
vn 0.000000 0.497937 -0.867213
vn 0.000000 -0.002381 -0.999997
vn 0.000000 -0.002381 -0.999997
vn 0.000000 -0.002381 -0.999997
vn 0.000000 -0.002380 -0.999997
vn 0.000000 -0.002380 -0.999997
vn 0.000000 -0.002380 -0.999997
vn 0.000000 -0.502060 -0.864833
vn 0.000000 -0.502060 -0.864833
vn 0.000000 -0.502060 -0.864833
vn 0.000000 -0.502060 -0.864833
vn 0.000000 -0.502060 -0.864833
vn 0.000000 -0.502060 -0.864833
vn 0.000000 -0.867213 -0.497937
vn 0.000000 -0.867213 -0.497937
vn 0.000000 -0.867213 -0.497937
vn 0.000000 -0.867213 -0.497937
vn 0.000000 -0.867213 -0.497937
vn 0.000000 -0.867213 -0.497937
vn 0.000000 -0.999997 0.002380
vn 0.000000 -0.999997 0.002380
vn 0.000000 -0.999997 0.002380
vn 0.000000 -0.999997 0.002380
vn 0.000000 -0.999997 0.002380
vn 0.000000 -0.999997 0.002380
vn 0.000000 -0.864833 0.502060
vn 0.000000 -0.864833 0.502060
vn 0.000000 -0.864833 0.502060
vn 0.000000 -0.864833 0.502060
vn 0.000000 -0.864833 0.502060
vn 0.000000 -0.864833 0.502060
vn 0.000000 -0.497937 0.867213
vn 0.000000 -0.497937 0.867213
vn 0.000000 -0.497937 0.867213
vn 0.000000 -0.497937 0.867213
vn 0.000000 -0.497937 0.867213
vn 0.000000 -0.497937 0.867213
vn 0.000000 0.002381 0.999997
vn 0.000000 0.002381 0.999997
vn 0.000000 0.002381 0.999997
vn 0.000000 0.002381 0.999997
vn 0.000000 0.002381 0.999997
vn 0.000000 0.002381 0.999997
vn 0.000000 0.502060 0.864833
vn 0.000000 0.502060 0.864833
vn 0.000000 0.502060 0.864833
vn 0.000000 0.502060 0.864833
vn 0.000000 0.502060 0.864833
vn 0.000000 0.502060 0.864833
vn 0.000000 0.867213 0.497937
vn 0.000000 0.867213 0.497937
vn 0.000000 0.867213 0.497937
vn 0.000000 0.867213 0.497937
vn 0.000000 0.867213 0.497937
vn 0.000000 0.867213 0.497937
vn 0.990628 0.136584 -0.000325
vn 0.990628 0.136584 -0.000325
vn 0.990628 0.136584 -0.000325
vn 0.990628 0.136584 -0.000325
vn 0.990628 0.136584 -0.000325
vn 0.990628 0.136584 -0.000325
vn 0.990628 0.118123 -0.068574
vn 0.990628 0.118123 -0.068574
vn 0.990628 0.118123 -0.068574
vn 0.990629 0.118122 -0.068573
vn 0.990629 0.118122 -0.068573
vn 0.990629 0.118122 -0.068573
vn 0.990629 0.068010 -0.118447
vn 0.990629 0.068010 -0.118447
vn 0.990629 0.068010 -0.118447
vn 0.990629 0.068010 -0.118447
vn 0.990629 0.068010 -0.118447
vn 0.990629 0.068010 -0.118447
vn 0.990629 -0.000325 -0.136583
vn 0.990629 -0.000325 -0.136583
vn 0.990629 -0.000325 -0.136583
vn 0.990629 -0.000325 -0.136583
vn 0.990629 -0.000325 -0.136583
vn 0.990629 -0.000325 -0.136583
vn 0.990628 -0.068574 -0.118122
vn 0.990628 -0.068574 -0.118122
vn 0.990628 -0.068574 -0.118122
vn 0.990629 -0.068573 -0.118122
vn 0.990629 -0.068573 -0.118122
vn 0.990629 -0.068573 -0.118122
vn 0.990629 -0.118446 -0.068010
vn 0.990629 -0.118446 -0.068010
vn 0.990629 -0.118446 -0.068010
vn 0.990629 -0.118447 -0.068010
vn 0.990629 -0.118447 -0.068010
vn 0.990629 -0.118447 -0.068010
vn 0.990629 -0.136583 0.000325
vn 0.990629 -0.136583 0.000325
vn 0.990629 -0.136583 0.000325
vn 0.990629 -0.136583 0.000325
vn 0.990629 -0.136583 0.000325
vn 0.990629 -0.136583 0.000325
vn 0.990629 -0.118122 0.068573
vn 0.990629 -0.118122 0.068573
vn 0.990629 -0.118122 0.068573
vn 0.990629 -0.118122 0.068573
vn 0.990629 -0.118122 0.068573
vn 0.990629 -0.118122 0.068573
vn 0.990629 -0.068010 0.118447
vn 0.990629 -0.068010 0.118447
vn 0.990629 -0.068010 0.118447
vn 0.990629 -0.068010 0.118447
vn 0.990629 -0.068010 0.118447
vn 0.990629 -0.068010 0.118447
vn 0.990629 0.000325 0.136583
vn 0.990629 0.000325 0.136583
vn 0.990629 0.000325 0.136583
vn 0.990628 0.000325 0.136584
vn 0.990628 0.000325 0.136584
vn 0.990628 0.000325 0.136584
vn 0.990628 0.068574 0.118122
vn 0.990628 0.068574 0.118122
vn 0.990628 0.068574 0.118122
vn 0.990629 0.068573 0.118122
vn 0.990629 0.068573 0.118122
vn 0.990629 0.068573 0.118122
vn 0.990628 0.118448 0.068010
vn 0.990628 0.118448 0.068010
vn 0.990628 0.118448 0.068010
vn 0.990628 0.118448 0.068010
vn 0.990628 0.118448 0.068010
vn 0.990628 0.118448 0.068010
vn 0.903751 -0.421864 -0.072563
vn 0.964964 -0.246610 -0.089601
vn 0.964964 -0.258370 0.045709
vn 0.903751 -0.421864 -0.072563
vn 0.964964 -0.258370 0.045709
vn 0.903750 -0.401627 0.148091
vn 0.903750 -0.401627 0.148091
vn 0.964964 -0.258370 0.045709
vn 0.964964 -0.200901 0.168770
vn 0.903750 -0.401627 0.148091
vn 0.964964 -0.200901 0.168770
vn 0.903751 -0.273774 0.329063
vn 0.903751 -0.273774 0.329063
vn 0.964964 -0.200901 0.168770
vn 0.964964 -0.089601 0.246610
vn 0.903751 -0.273774 0.329063
vn 0.964964 -0.089601 0.246610
vn 0.903751 -0.072563 0.421864
vn 0.903751 -0.072563 0.421864
vn 0.964964 -0.089601 0.246610
vn 0.964964 0.045709 0.258370
vn 0.903751 -0.072563 0.421864
vn 0.964964 0.045709 0.258370
vn 0.903751 0.148091 0.401627
vn 0.903751 0.148091 0.401627
vn 0.964964 0.045709 0.258370
vn 0.964964 0.168770 0.200901
vn 0.903751 0.148091 0.401627
vn 0.964964 0.168770 0.200901
vn 0.903750 0.329064 0.273774
vn 0.903750 0.329064 0.273774
vn 0.964964 0.168770 0.200901
vn 0.964964 0.246610 0.089600
vn 0.903750 0.329064 0.273774
vn 0.964964 0.246610 0.089600
vn 0.903750 0.421865 0.072563
vn 0.903750 0.421865 0.072563
vn 0.964964 0.246610 0.089600
vn 0.964964 0.258371 -0.045709
vn 0.903750 0.421865 0.072563
vn 0.964964 0.258371 -0.045709
vn 0.903750 0.401627 -0.148091
vn 0.903750 0.401627 -0.148091
vn 0.964964 0.258371 -0.045709
vn 0.964964 0.200901 -0.168771
vn 0.903750 0.401627 -0.148091
vn 0.964964 0.200901 -0.168771
vn 0.903750 0.273774 -0.329064
vn 0.903750 0.273774 -0.329064
vn 0.964964 0.200901 -0.168771
vn 0.964964 0.089601 -0.246610
vn 0.903750 0.273774 -0.329064
vn 0.964964 0.089601 -0.246610
vn 0.903751 0.072564 -0.421864
vn 0.903751 0.072564 -0.421864
vn 0.964964 0.089601 -0.246610
vn 0.964964 -0.045708 -0.258371
vn 0.903751 0.072564 -0.421864
vn 0.964964 -0.045708 -0.258371
vn 0.903750 -0.148091 -0.401627
vn 0.903750 -0.148091 -0.401627
vn 0.964964 -0.045708 -0.258371
vn 0.964964 -0.168770 -0.200901
vn 0.903750 -0.148091 -0.401627
vn 0.964964 -0.168770 -0.200901
vn 0.903750 -0.329064 -0.273774
vn 0.903750 -0.329064 -0.273774
vn 0.964964 -0.168770 -0.200901
vn 0.964964 -0.246610 -0.089601
vn 0.903750 -0.329064 -0.273774
vn 0.964964 -0.246610 -0.089601
vn 0.903751 -0.421864 -0.072563
vn 1.000000 0.000000 0.000000
vn 0.964964 -0.258370 0.045709
vn 0.964964 -0.246610 -0.089601
vn 1.000000 0.000000 0.000000
vn 0.964964 -0.200901 0.168770
vn 0.964964 -0.258370 0.045709
vn 1.000000 0.000000 0.000000
vn 0.964964 -0.089601 0.246610
vn 0.964964 -0.200901 0.168770
vn 1.000000 0.000000 0.000000
vn 0.964964 0.045709 0.258370
vn 0.964964 -0.089601 0.246610
vn 1.000000 0.000000 0.000000
vn 0.964964 0.168770 0.200901
vn 0.964964 0.045709 0.258370
vn 1.000000 0.000000 0.000000
vn 0.964964 0.246610 0.089600
vn 0.964964 0.168770 0.200901
vn 1.000000 0.000000 0.000000
vn 0.964964 0.258371 -0.045709
vn 0.964964 0.246610 0.089600
vn 1.000000 0.000000 0.000000
vn 0.964964 0.200901 -0.168771
vn 0.964964 0.258371 -0.045709
vn 1.000000 0.000000 0.000000
vn 0.964964 0.089601 -0.246610
vn 0.964964 0.200901 -0.168771
vn 1.000000 0.000000 0.000000
vn 0.964964 -0.045708 -0.258371
vn 0.964964 0.089601 -0.246610
vn 1.000000 0.000000 0.000000
vn 0.964964 -0.168770 -0.200901
vn 0.964964 -0.045708 -0.258371
vn 1.000000 0.000000 0.000000
vn 0.964964 -0.246610 -0.089601
vn 0.964964 -0.168770 -0.200901
s off
g Mesh
usemtl initialShadingGroup
f 1/1/1 2/2/2 3/3/3
f 1/1/4 3/3/5 4/4/6
f 1/1/7 4/4/8 5/5/9
f 1/1/10 5/5/11 6/6/12
f 1/1/13 6/6/14 7/7/15
f 1/1/16 7/7/17 8/8/18
f 1/1/19 8/8/20 9/9/21
f 1/1/22 9/9/23 10/10/24
f 1/1/25 10/10/26 11/11/27
f 1/1/28 11/11/29 12/12/30
f 1/1/31 12/12/32 13/13/33
f 1/1/34 13/13/35 2/2/36
f 14/14/37 15/15/38 16/16/39
f 17/17/40 16/16/41 18/18/42
f 19/19/43 20/20/44 21/21/45
f 22/22/46 21/21/47 23/23/48
f 24/24/49 25/25/50 26/26/51
f 27/27/52 26/26/53 28/28/54
f 29/29/55 30/30/56 31/31/57
f 32/32/58 31/31/59 33/33/60
f 34/34/61 35/35/62 36/36/63
f 37/37/64 36/36/65 38/38/66
f 39/39/67 40/40/68 41/41/69
f 42/42/70 41/41/71 43/43/72
f 44/44/73 45/45/74 46/46/75
f 47/47/76 46/46/77 48/48/78
f 49/49/79 50/50/80 51/51/81
f 52/52/82 51/51/83 53/53/84
f 54/54/85 55/55/86 56/56/87
f 57/57/88 56/56/89 58/58/90
f 59/59/91 60/60/92 61/61/93
f 62/62/94 61/61/95 63/63/96
f 64/64/97 65/65/98 66/66/99
f 67/67/100 66/66/101 68/68/102
f 69/69/103 70/70/104 71/71/105
f 72/72/106 73/73/107 74/74/108
f 75/75/109 76/76/110 77/77/111
f 78/78/112 77/77/113 79/79/114
f 80/80/115 77/77/116 81/81/117
f 82/82/118 81/81/119 83/83/120
f 84/84/121 81/81/122 85/85/123
f 86/86/124 85/85/125 87/87/126
f 88/88/127 85/85/128 89/89/129
f 90/90/130 89/89/131 91/91/132
f 92/92/133 89/89/134 93/93/135
f 94/94/136 93/93/137 95/95/138
f 96/96/139 93/93/140 97/97/141
f 98/98/142 97/97/143 99/99/144
f 100/100/145 97/97/146 101/101/147
f 102/102/148 101/101/149 103/103/150
f 104/104/151 101/101/152 105/105/153
f 106/106/154 105/105/155 107/107/156
f 108/108/157 105/105/158 109/109/159
f 110/110/160 109/109/161 111/111/162
f 112/112/163 109/109/164 113/113/165
f 114/114/166 113/113/167 115/115/168
f 116/116/169 113/113/170 117/117/171
f 118/118/172 117/117/173 119/119/174
f 120/120/175 117/117/176 76/76/177
f 121/121/178 76/76/179 122/122/180
f 76/76/181 123/123/182 124/124/183
f 76/76/184 124/124/185 77/77/186
f 77/77/187 124/124/188 125/125/189
f 77/77/190 125/125/191 81/81/192
f 81/81/193 125/125/194 126/126/195
f 81/81/196 126/126/197 85/85/198
f 85/85/199 126/126/200 127/127/201
f 85/85/202 127/127/203 89/89/204
f 89/89/205 127/127/206 128/128/207
f 89/89/208 128/128/209 93/93/210
f 93/93/211 128/128/212 129/129/213
f 93/93/214 129/129/215 97/97/216
f 97/97/217 129/129/218 130/130/219
f 97/97/220 130/130/221 101/101/222
f 101/101/223 130/130/224 131/131/225
f 101/101/226 131/131/227 105/105/228
f 105/105/229 131/131/230 132/132/231
f 105/105/232 132/132/233 109/109/234
f 109/109/235 132/132/236 133/133/237
f 109/109/238 133/133/239 113/113/240
f 113/113/241 133/133/242 134/134/243
f 113/113/244 134/134/245 117/117/246
f 117/117/247 134/134/248 123/123/249
f 117/117/250 123/123/251 76/76/252
f 135/135/253 124/124/254 123/123/255
f 135/135/256 125/125/257 124/124/258
f 135/135/259 126/126/260 125/125/261
f 135/135/262 127/127/263 126/126/264
f 135/135/265 128/128/266 127/127/267
f 135/135/268 129/129/269 128/128/270
f 135/135/271 130/130/272 129/129/273
f 135/135/274 131/131/275 130/130/276
f 135/135/277 132/132/278 131/131/279
f 135/135/280 133/133/281 132/132/282
f 135/135/283 134/134/284 133/133/285
f 135/135/286 123/123/287 134/134/288
