# This file uses centimeters as units for non-parametric coordinates.

mtllib tree1_branch.mtl
g default
v -0.895487 2.130721 1.122391
v -0.273230 2.130721 1.122391
v -0.273230 1.890066 0.724495
v -0.895487 1.805158 0.814184
v 0.349027 2.130721 1.122391
v 0.349027 1.805158 0.814184
v -0.273230 1.677879 0.296528
v -0.895487 1.479596 0.505976
v 0.349027 1.479596 0.505976
v -0.273230 1.352317 -0.011680
v -0.895487 1.267410 0.078008
v 0.349027 1.267410 0.078008
v 0.353535 0.782213 -0.478165
v 0.128352 0.924515 -0.597198
v 0.086791 1.019281 -0.405283
v 0.281039 0.828026 -0.286250
v -0.096831 1.066817 -0.716231
v -0.169327 1.112630 -0.524316
v 0.055603 1.130460 -0.213369
v 0.208543 0.873839 -0.094336
v -0.241823 1.158443 -0.332402
v -0.016893 1.176273 -0.021454
v 0.177354 0.985018 0.097579
v -0.273011 1.269623 -0.140487
v -0.631820 1.234782 -1.046179
v -0.925348 1.234782 -0.731496
v -0.698632 1.320193 -0.520021
v -0.405104 1.234782 -0.834704
v -1.218876 1.234782 -0.416813
v -0.992160 1.234782 -0.205338
v -0.471916 1.434241 -0.308546
v -0.178388 1.234782 -0.623229
v -0.765443 1.234782 0.006137
v -0.245199 1.434241 -0.097071
v 0.048329 1.348830 -0.411754
v -0.538727 1.348830 0.217612
v 0.888160 1.041745 0.555570
v 0.884077 1.041745 0.263835
v 0.673893 1.099653 0.266777
v 0.677976 1.041745 0.558512
v 0.879993 1.041745 -0.027900
v 0.669810 1.041745 -0.024958
v 0.463710 1.176978 0.269719
v 0.467793 1.041745 0.561454
v 0.459626 1.041745 -0.022016
v 0.253526 1.176978 0.272661
v 0.257610 1.119069 0.564396
v 0.249443 1.119069 -0.019075
v -1.137379 0.756889 -0.096725
v -0.992655 0.900624 0.282194
v -0.859144 1.153599 0.135240
v -0.943681 0.949263 -0.243679
v -0.847931 1.044359 0.661112
v -0.654233 1.236733 0.514158
v -0.745814 1.426893 -0.011714
v -0.749983 1.141637 -0.390632
v -0.460535 1.429106 0.367205
v -0.552116 1.619267 -0.158668
v -0.636653 1.414931 -0.537586
v -0.347205 1.702401 0.220251
v 0.703728 1.710283 1.352950
v 0.997259 1.761981 1.003955
v 0.739720 1.720759 0.781240
v 0.478807 1.585350 1.145267
v 1.290789 1.813679 0.654961
v 1.065868 1.688745 0.447278
v 0.471246 1.707604 0.553484
v 0.253886 1.460417 0.937585
v 0.840946 1.563812 0.239596
v 0.246324 1.582671 0.345802
v -0.014589 1.447262 0.709829
v 0.572472 1.550657 0.011840
v 0.372001 2.253143 -0.752541
v 0.086943 2.293984 -0.972832
v -0.080439 2.261419 -0.762276
v 0.215419 2.154446 -0.568221
v -0.198114 2.334825 -1.193123
v -0.354697 2.236128 -1.008804
v -0.251443 2.251026 -0.542924
v 0.058837 2.055749 -0.383902
v -0.511279 2.137431 -0.824484
v -0.408025 2.152329 -0.358604
v -0.112167 2.045356 -0.164549
v -0.682282 2.127038 -0.605132
v 0.317276 1.952967 -0.596282
v 0.143108 1.782820 -0.757035
v -0.013977 1.801900 -0.607036
v 0.190979 1.925612 -0.430492
v -0.031061 1.612674 -0.917788
v -0.157358 1.585319 -0.751997
v -0.181383 1.836550 -0.462332
v 0.064682 1.898258 -0.264701
v -0.283655 1.557965 -0.586207
v -0.307680 1.809195 -0.296542
v -0.102724 1.932907 -0.119997
v -0.451062 1.592614 -0.441503
v -1.235709 2.546370 -0.460873
v -1.129739 2.376223 -0.248867
v -0.929721 2.395303 -0.333532
v -1.058893 2.519015 -0.571207
v -1.023768 2.206077 -0.036861
v -0.846952 2.178722 -0.147195
v -0.721925 2.429953 -0.409590
v -0.882077 2.491661 -0.681541
v -0.670137 2.151368 -0.257529
v -0.545109 2.402598 -0.519924
v -0.674280 2.526310 -0.757599
v -0.462340 2.186017 -0.333587
vt 0.000000 0.000000
vt 0.500000 0.000000
vt 0.500000 0.333333
vt 0.000000 0.333333
vt 1.000000 0.000000
vt 1.000000 0.333333
vt 0.500000 0.666667
vt 0.000000 0.666667
vt 1.000000 0.666667
vt 0.500000 1.000000
vt 0.000000 1.000000
vt 1.000000 1.000000
vt 0.000000 0.000000
vt 0.500000 0.000000
vt 0.500000 0.333333
vt 0.000000 0.333333
vt 1.000000 0.000000
vt 1.000000 0.333333
vt 0.500000 0.666667
vt 0.000000 0.666667
vt 1.000000 0.666667
vt 0.500000 1.000000
vt 0.000000 1.000000
vt 1.000000 1.000000
vt 0.000000 0.000000
vt 0.500000 0.000000
vt 0.500000 0.333333
vt 0.000000 0.333333
vt 1.000000 0.000000
vt 1.000000 0.333333
vt 0.500000 0.666667
vt 0.000000 0.666667
vt 1.000000 0.666667
vt 0.500000 1.000000
vt 0.000000 1.000000
vt 1.000000 1.000000
vt 0.000000 0.000000
vt 0.500000 0.000000
vt 0.500000 0.333333
vt 0.000000 0.333333
vt 1.000000 0.000000
vt 1.000000 0.333333
vt 0.500000 0.666667
vt 0.000000 0.666667
vt 1.000000 0.666667
vt 0.500000 1.000000
vt 0.000000 1.000000
vt 1.000000 1.000000
vt 0.000000 0.000000
vt 0.500000 0.000000
vt 0.500000 0.333333
vt 0.000000 0.333333
vt 1.000000 0.000000
vt 1.000000 0.333333
vt 0.500000 0.666667
vt 0.000000 0.666667
vt 1.000000 0.666667
vt 0.500000 1.000000
vt 0.000000 1.000000
vt 1.000000 1.000000
vt 0.000000 0.000000
vt 0.500000 0.000000
vt 0.500000 0.333333
vt 0.000000 0.333333
vt 1.000000 0.000000
vt 1.000000 0.333333
vt 0.500000 0.666667
vt 0.000000 0.666667
vt 1.000000 0.666667
vt 0.500000 1.000000
vt 0.000000 1.000000
vt 1.000000 1.000000
vt 0.000000 0.000000
vt 0.500000 0.000000
vt 0.500000 0.333333
vt 0.000000 0.333333
vt 1.000000 0.000000
vt 1.000000 0.333333
vt 0.500000 0.666667
vt 0.000000 0.666667
vt 1.000000 0.666667
vt 0.500000 1.000000
vt 0.000000 1.000000
vt 1.000000 1.000000
vt 0.000000 0.000000
vt 0.500000 0.000000
vt 0.500000 0.333333
vt 0.000000 0.333333
vt 1.000000 0.000000
vt 1.000000 0.333333
vt 0.500000 0.666667
vt 0.000000 0.666667
vt 1.000000 0.666667
vt 0.500000 1.000000
vt 0.000000 1.000000
vt 1.000000 1.000000
vt 0.000000 0.000000
vt 0.500000 0.000000
vt 0.500000 0.333333
vt 0.000000 0.333333
vt 1.000000 0.000000
vt 1.000000 0.333333
vt 0.500000 0.666667
vt 0.000000 0.666667
vt 1.000000 0.666667
vt 0.500000 1.000000
vt 0.000000 1.000000
vt 1.000000 1.000000
vn -0.098690 0.775614 -0.623445
vn 0.063404 0.804128 -0.591066
vn 0.069697 0.819546 -0.568759
vn 0.069697 0.819546 -0.568759
vn -0.271392 0.740700 -0.614581
vn -0.098690 0.775614 -0.623445
vn 0.063404 0.804128 -0.591066
vn 0.000000 0.687486 -0.726197
vn 0.129082 0.742954 -0.656778
vn 0.129082 0.742954 -0.656778
vn 0.069697 0.819546 -0.568759
vn 0.063404 0.804128 -0.591066
vn -0.271392 0.740700 -0.614581
vn 0.069697 0.819546 -0.568759
vn -0.005738 0.804559 -0.593845
vn -0.005738 0.804559 -0.593845
vn -0.348101 0.723362 -0.596299
vn -0.271392 0.740700 -0.614581
vn 0.069697 0.819546 -0.568759
vn 0.129082 0.742954 -0.656778
vn 0.336727 0.786269 -0.518070
vn 0.336727 0.786269 -0.518070
vn -0.005738 0.804559 -0.593845
vn 0.069697 0.819546 -0.568759
vn -0.348101 0.723362 -0.596299
vn -0.005738 0.804559 -0.593845
vn -0.142967 0.761678 -0.631986
vn -0.142967 0.761678 -0.631986
vn -0.183124 0.880777 -0.436689
vn -0.348101 0.723362 -0.596299
vn -0.005738 0.804559 -0.593845
vn 0.336727 0.786269 -0.518070
vn 0.302766 0.763012 -0.571092
vn 0.302766 0.763012 -0.571092
vn -0.142967 0.761678 -0.631986
vn -0.005738 0.804559 -0.593845
vn 0.649319 0.756010 -0.082660
vn 0.536945 0.822398 -0.188019
vn 0.538246 0.814952 -0.214811
vn 0.538246 0.814952 -0.214811
vn 0.759706 0.650244 0.005383
vn 0.649319 0.756010 -0.082660
vn 0.536945 0.822398 -0.188019
vn 0.534211 0.845351 0.000000
vn 0.458378 0.878748 -0.133010
vn 0.458378 0.878748 -0.133010
vn 0.538246 0.814952 -0.214811
vn 0.536945 0.822398 -0.188019
vn 0.759706 0.650244 0.005383
vn 0.538246 0.814952 -0.214811
vn 0.590993 0.790981 -0.158353
vn 0.590993 0.790981 -0.158353
vn 0.805443 0.591536 0.036698
vn 0.759706 0.650244 0.005383
vn 0.538246 0.814952 -0.214811
vn 0.458378 0.878748 -0.133010
vn 0.303951 0.892405 -0.333506
vn 0.303951 0.892405 -0.333506
vn 0.590993 0.790981 -0.158353
vn 0.538246 0.814952 -0.214811
vn 0.805443 0.591536 0.036698
vn 0.590993 0.790981 -0.158353
vn 0.676172 0.735045 -0.049996
vn 0.676172 0.735045 -0.049996
vn 0.751276 0.616672 -0.235159
vn 0.805443 0.591536 0.036698
vn 0.590993 0.790981 -0.158353
vn 0.303951 0.892405 -0.333506
vn 0.323794 0.906501 -0.270950
vn 0.323794 0.906501 -0.270950
vn 0.676172 0.735045 -0.049996
vn 0.590993 0.790981 -0.158353
vn -0.031139 0.985968 -0.164006
vn -0.173123 0.982057 -0.074780
vn -0.196818 0.976458 -0.088275
vn -0.196818 0.976458 -0.088275
vn 0.100745 0.955528 -0.277158
vn -0.031139 0.985968 -0.164006
vn -0.173123 0.982057 -0.074780
vn 0.000000 1.000000 0.000000
vn -0.152401 0.987721 0.034364
vn -0.152401 0.987721 0.034364
vn -0.196818 0.976458 -0.088275
vn -0.173123 0.982057 -0.074780
vn 0.100745 0.955528 -0.277158
vn -0.196818 0.976458 -0.088275
vn -0.124794 0.984372 -0.124251
vn -0.124794 0.984372 -0.124251
vn 0.153084 0.930332 -0.333237
vn 0.100745 0.955528 -0.277158
vn -0.196818 0.976458 -0.088275
vn -0.152401 0.987721 0.034364
vn -0.386771 0.916770 0.099707
vn -0.386771 0.916770 0.099707
vn -0.124794 0.984372 -0.124251
vn -0.196818 0.976458 -0.088275
vn 0.153084 0.930332 -0.333237
vn -0.124794 0.984372 -0.124251
vn 0.010756 0.982590 -0.185475
vn 0.010756 0.982590 -0.185475
vn -0.123280 0.922645 -0.365415
vn 0.153084 0.930332 -0.333237
vn -0.124794 0.984372 -0.124251
vn -0.386771 0.916770 0.099707
vn -0.324600 0.939285 0.111256
vn -0.324600 0.939285 0.111256
vn 0.010756 0.982590 -0.185475
vn -0.124794 0.984372 -0.124251
vn 0.136007 0.985968 0.096796
vn 0.176700 0.982057 -0.065883
vn 0.203142 0.976458 -0.072548
vn 0.203142 0.976458 -0.072548
vn 0.119166 0.955528 0.269751
vn 0.136007 0.985968 0.096796
vn 0.176700 0.982057 -0.065883
vn 0.000000 1.000000 0.000000
vn 0.086189 0.987721 -0.130300
vn 0.086189 0.987721 -0.130300
vn 0.203142 0.976458 -0.072548
vn 0.176700 0.982057 -0.065883
vn 0.119166 0.955528 0.269751
vn 0.203142 0.976458 -0.072548
vn 0.176072 0.984372 0.003274
vn 0.176072 0.984372 0.003274
vn 0.120217 0.930332 0.346453
vn 0.119166 0.955528 0.269751
vn 0.203142 0.976458 -0.072548
vn 0.086189 0.987721 -0.130300
vn 0.210087 0.916770 -0.339701
vn 0.210087 0.916770 -0.339701
vn 0.176072 0.984372 0.003274
vn 0.203142 0.976458 -0.072548
vn 0.120217 0.930332 0.346453
vn 0.176072 0.984372 0.003274
vn 0.120636 0.982590 0.141292
vn 0.120636 0.982590 0.141292
vn 0.341929 0.922645 0.178356
vn 0.120217 0.930332 0.346453
vn 0.176072 0.984372 0.003274
vn 0.210087 0.916770 -0.339701
vn 0.157226 0.939286 -0.304996
vn 0.157226 0.939286 -0.304996
vn 0.120636 0.982590 0.141292
vn 0.176072 0.984372 0.003274
vn -0.812097 0.583065 -0.023082
vn -0.781671 0.607772 0.140012
vn -0.792185 0.589438 0.158130
vn -0.792185 0.589438 0.158130
vn -0.836695 0.515734 -0.184281
vn -0.812097 0.583065 -0.023082
vn -0.781671 0.607772 0.140012
vn -0.704678 0.709528 0.000000
vn -0.707596 0.689324 0.155373
vn -0.707596 0.689324 0.155373
vn -0.792185 0.589438 0.158130
vn -0.781671 0.607772 0.140012
vn -0.836695 0.515734 -0.184281
vn -0.792185 0.589438 0.158130
vn -0.805558 0.587311 0.078374
vn -0.805558 0.587311 0.078374
vn -0.844724 0.472249 -0.251836
vn -0.836695 0.515734 -0.184281
vn -0.792185 0.589438 0.158130
vn -0.707596 0.689324 0.155373
vn -0.666994 0.629650 0.398322
vn -0.666994 0.629650 0.398322
vn -0.805558 0.587311 0.078374
vn -0.792185 0.589438 0.158130
vn -0.844724 0.472249 -0.251836
vn -0.805558 0.587311 0.078374
vn -0.814616 0.575803 -0.069650
vn -0.814616 0.575803 -0.069650
vn -0.923797 0.382882 -0.000374
vn -0.844724 0.472249 -0.251836
vn -0.805558 0.587311 0.078374
vn -0.666994 0.629650 0.398322
vn -0.660956 0.667380 0.343134
vn -0.660956 0.667380 0.343134
vn -0.814616 0.575803 -0.069650
vn -0.805558 0.587311 0.078374
vn -0.324582 0.945852 -0.003103
vn -0.190283 0.976752 -0.098732
vn -0.166204 0.982340 -0.085929
vn -0.166204 0.982340 -0.085929
vn -0.437240 0.891147 0.121150
vn -0.324582 0.945852 -0.003103
vn -0.190283 0.976752 -0.098732
vn -0.358073 0.918993 -0.165033
vn -0.211255 0.955501 -0.205888
vn -0.211255 0.955501 -0.205888
vn -0.166204 0.982340 -0.085929
vn -0.190283 0.976752 -0.098732
vn -0.437240 0.891147 0.121150
vn -0.166204 0.982340 -0.085929
vn -0.236419 0.970487 -0.047540
vn -0.236419 0.970487 -0.047540
vn -0.477295 0.859343 0.183626
vn -0.437240 0.891147 0.121150
vn -0.166204 0.982340 -0.085929
vn -0.211255 0.955501 -0.205888
vn 0.033221 0.961603 -0.272426
vn 0.033221 0.961603 -0.272426
vn -0.236419 0.970487 -0.047540
vn -0.166204 0.982340 -0.085929
vn -0.477295 0.859343 0.183626
vn -0.236419 0.970487 -0.047540
vn -0.362570 0.931718 0.021078
vn -0.362570 0.931718 0.021078
vn -0.216624 0.955515 0.200163
vn -0.477295 0.859343 0.183626
vn -0.236419 0.970487 -0.047540
vn 0.033221 0.961603 -0.272426
vn -0.032847 0.958315 -0.283820
vn -0.032847 0.958315 -0.283820
vn -0.362570 0.931718 0.021078
vn -0.236419 0.970487 -0.047540
vn 0.010319 0.945852 0.324433
vn -0.090780 0.976752 0.194203
vn -0.078984 0.982340 0.169615
vn -0.078984 0.982340 0.169615
vn 0.139125 0.891147 0.431857
vn 0.010319 0.945852 0.324433
vn -0.090780 0.976752 0.194203
vn -0.150088 0.918992 0.364591
vn -0.196978 0.955501 0.219587
vn -0.196978 0.955501 0.219587
vn -0.078984 0.982340 0.169615
vn -0.090780 0.976752 0.194203
vn 0.139125 0.891147 0.431857
vn -0.078984 0.982340 0.169615
vn -0.037724 0.970488 0.238182
vn -0.037724 0.970488 0.238182
vn 0.203203 0.859343 0.469295
vn 0.139125 0.891147 0.431857
vn -0.078984 0.982340 0.169615
vn -0.196978 0.955501 0.219587
vn -0.273566 0.961603 -0.021929
vn -0.273566 0.961603 -0.021929
vn -0.037724 0.970488 0.238182
vn -0.078984 0.982340 0.169615
vn 0.203203 0.859343 0.469295
vn -0.037724 0.970488 0.238182
vn 0.036051 0.931718 0.361388
vn 0.036051 0.931718 0.361388
vn 0.208949 0.955515 0.208164
vn 0.203203 0.859343 0.469295
vn -0.037724 0.970488 0.238182
vn -0.273566 0.961603 -0.021929
vn -0.282219 0.958315 0.044553
vn -0.282219 0.958315 0.044553
vn 0.036051 0.931718 0.361388
vn -0.037724 0.970488 0.238182
vn -0.384380 0.865684 -0.320691
vn -0.453248 0.773613 -0.442820
vn -0.438087 0.768905 -0.465688
vn -0.438087 0.768905 -0.465688
vn -0.276674 0.939483 -0.202046
vn -0.384380 0.865684 -0.320691
vn -0.453248 0.773613 -0.442820
vn -0.531649 0.801863 -0.272700
vn -0.549300 0.728193 -0.409882
vn -0.549300 0.728193 -0.409882
vn -0.438087 0.768905 -0.465688
vn -0.453248 0.773613 -0.442820
vn -0.276674 0.939483 -0.202046
vn -0.438087 0.768905 -0.465688
vn -0.414164 0.815582 -0.404098
vn -0.414164 0.815582 -0.404098
vn -0.217500 0.964011 -0.152892
vn -0.276674 0.939483 -0.202046
vn -0.438087 0.768905 -0.465688
vn -0.549300 0.728193 -0.409882
vn -0.559339 0.566711 -0.604962
vn -0.559339 0.566711 -0.604962
vn -0.414164 0.815582 -0.404098
vn -0.438087 0.768905 -0.465688
vn -0.217500 0.964011 -0.152892
vn -0.414164 0.815582 -0.404098
vn -0.365762 0.886716 -0.282761
vn -0.365762 0.886716 -0.282761
vn -0.177285 0.890793 -0.418399
vn -0.217500 0.964011 -0.152892
vn -0.414164 0.815582 -0.404098
vn -0.559339 0.566711 -0.604962
vn -0.583085 0.597629 -0.550319
vn -0.583085 0.597629 -0.550319
vn -0.365762 0.886716 -0.282761
vn -0.414164 0.815582 -0.404098
vn 0.245936 0.865685 0.436011
vn 0.267102 0.773613 0.574613
vn 0.244826 0.768905 0.590631
vn 0.244826 0.768905 0.590631
vn 0.187215 0.939483 0.286917
vn 0.245936 0.865685 0.436011
vn 0.267102 0.773613 0.574613
vn 0.400657 0.801862 0.443272
vn 0.368594 0.728193 0.577818
vn 0.368594 0.728193 0.577818
vn 0.244826 0.768905 0.590631
vn 0.267102 0.773613 0.574613
vn 0.187215 0.939483 0.286917
vn 0.244826 0.768905 0.590631
vn 0.244259 0.815582 0.524561
vn 0.244259 0.815582 0.524561
vn 0.149278 0.964011 0.219997
vn 0.187215 0.939483 0.286917
vn 0.244826 0.768905 0.590631
vn 0.368594 0.728193 0.577818
vn 0.308912 0.566711 0.763814
vn 0.308912 0.566711 0.763814
vn 0.244259 0.815582 0.524561
vn 0.244826 0.768905 0.590631
vn 0.149278 0.964011 0.219997
vn 0.244259 0.815582 0.524561
vn 0.241954 0.886716 0.393946
vn 0.241954 0.886716 0.393946
vn 0.017662 0.890793 0.454066
vn 0.149278 0.964011 0.219997
vn 0.244259 0.815582 0.524561
vn 0.308912 0.566711 0.763814
vn 0.350467 0.597629 0.721119
vn 0.350467 0.597629 0.721119
vn 0.241954 0.886716 0.393946
vn 0.244259 0.815582 0.524561
s off
g Mesh
usemtl initialShadingGroup
f 1/1/1 2/2/2 3/3/3
f 3/3/4 4/4/5 1/1/6
f 2/2/7 5/5/8 6/6/9
f 6/6/10 3/3/11 2/2/12
f 4/4/13 3/3/14 7/7/15
f 7/7/16 8/8/17 4/4/18
f 3/3/19 6/6/20 9/9/21
f 9/9/22 7/7/23 3/3/24
f 8/8/25 7/7/26 10/10/27
f 10/10/28 11/11/29 8/8/30
f 7/7/31 9/9/32 12/12/33
f 12/12/34 10/10/35 7/7/36
f 13/13/37 14/14/38 15/15/39
f 15/15/40 16/16/41 13/13/42
f 14/14/43 17/17/44 18/18/45
f 18/18/46 15/15/47 14/14/48
f 16/16/49 15/15/50 19/19/51
f 19/19/52 20/20/53 16/16/54
f 15/15/55 18/18/56 21/21/57
f 21/21/58 19/19/59 15/15/60
f 20/20/61 19/19/62 22/22/63
f 22/22/64 23/23/65 20/20/66
f 19/19/67 21/21/68 24/24/69
f 24/24/70 22/22/71 19/19/72
f 25/25/73 26/26/74 27/27/75
f 27/27/76 28/28/77 25/25/78
f 26/26/79 29/29/80 30/30/81
f 30/30/82 27/27/83 26/26/84
f 28/28/85 27/27/86 31/31/87
f 31/31/88 32/32/89 28/28/90
f 27/27/91 30/30/92 33/33/93
f 33/33/94 31/31/95 27/27/96
f 32/32/97 31/31/98 34/34/99
f 34/34/100 35/35/101 32/32/102
f 31/31/103 33/33/104 36/36/105
f 36/36/106 34/34/107 31/31/108
f 37/37/109 38/38/110 39/39/111
f 39/39/112 40/40/113 37/37/114
f 38/38/115 41/41/116 42/42/117
f 42/42/118 39/39/119 38/38/120
f 40/40/121 39/39/122 43/43/123
f 43/43/124 44/44/125 40/40/126
f 39/39/127 42/42/128 45/45/129
f 45/45/130 43/43/131 39/39/132
f 44/44/133 43/43/134 46/46/135
f 46/46/136 47/47/137 44/44/138
f 43/43/139 45/45/140 48/48/141
f 48/48/142 46/46/143 43/43/144
f 49/49/145 50/50/146 51/51/147
f 51/51/148 52/52/149 49/49/150
f 50/50/151 53/53/152 54/54/153
f 54/54/154 51/51/155 50/50/156
f 52/52/157 51/51/158 55/55/159
f 55/55/160 56/56/161 52/52/162
f 51/51/163 54/54/164 57/57/165
f 57/57/166 55/55/167 51/51/168
f 56/56/169 55/55/170 58/58/171
f 58/58/172 59/59/173 56/56/174
f 55/55/175 57/57/176 60/60/177
f 60/60/178 58/58/179 55/55/180
f 61/61/181 62/62/182 63/63/183
f 63/63/184 64/64/185 61/61/186
f 62/62/187 65/65/188 66/66/189
f 66/66/190 63/63/191 62/62/192
f 64/64/193 63/63/194 67/67/195
f 67/67/196 68/68/197 64/64/198
f 63/63/199 66/66/200 69/69/201
f 69/69/202 67/67/203 63/63/204
f 68/68/205 67/67/206 70/70/207
f 70/70/208 71/71/209 68/68/210
f 67/67/211 69/69/212 72/72/213
f 72/72/214 70/70/215 67/67/216
f 73/73/217 74/74/218 75/75/219
f 75/75/220 76/76/221 73/73/222
f 74/74/223 77/77/224 78/78/225
f 78/78/226 75/75/227 74/74/228
f 76/76/229 75/75/230 79/79/231
f 79/79/232 80/80/233 76/76/234
f 75/75/235 78/78/236 81/81/237
f 81/81/238 79/79/239 75/75/240
f 80/80/241 79/79/242 82/82/243
f 82/82/244 83/83/245 80/80/246
f 79/79/247 81/81/248 84/84/249
f 84/84/250 82/82/251 79/79/252
f 85/85/253 86/86/254 87/87/255
f 87/87/256 88/88/257 85/85/258
f 86/86/259 89/89/260 90/90/261
f 90/90/262 87/87/263 86/86/264
f 88/88/265 87/87/266 91/91/267
f 91/91/268 92/92/269 88/88/270
f 87/87/271 90/90/272 93/93/273
f 93/93/274 91/91/275 87/87/276
f 92/92/277 91/91/278 94/94/279
f 94/94/280 95/95/281 92/92/282
f 91/91/283 93/93/284 96/96/285
f 96/96/286 94/94/287 91/91/288
f 97/97/289 98/98/290 99/99/291
f 99/99/292 100/100/293 97/97/294
f 98/98/295 101/101/296 102/102/297
f 102/102/298 99/99/299 98/98/300
f 100/100/301 99/99/302 103/103/303
f 103/103/304 104/104/305 100/100/306
f 99/99/307 102/102/308 105/105/309
f 105/105/310 103/103/311 99/99/312
f 104/104/313 103/103/314 106/106/315
f 106/106/316 107/107/317 104/104/318
f 103/103/319 105/105/320 108/108/321
f 108/108/322 106/106/323 103/103/324
