# This file uses centimeters as units for non-parametric coordinates.

mtllib warning_steep.mtl
g default
v 0.000000 0.318894 -0.001684
v 0.119088 0.437982 -0.001684
v -0.119088 0.437982 -0.001684
v 0.000000 0.557071 -0.001684
v -0.119088 0.437982 -0.006001
v 0.000000 0.557071 -0.006001
v 0.000000 0.318894 -0.006001
v 0.119088 0.437982 -0.006001
v 0.010217 -0.001415 -0.001013
v 0.005145 -0.001415 -0.001013
v 0.010217 0.447121 -0.001013
v 0.005145 0.447121 -0.001013
v 0.010217 0.447121 0.001013
v 0.005145 0.447121 0.001013
v 0.010217 -0.001415 0.001013
v 0.005145 -0.001415 0.001013
v -0.012285 -0.001415 -0.000927
v -0.012285 -0.001415 0.001098
v -0.012285 0.447121 -0.000927
v -0.012285 0.447121 0.001098
v 0.001772 -0.001415 0.010071
v 0.001772 -0.001415 0.012097
v 0.001772 0.447121 0.012097
v 0.001772 0.447121 0.010071
v -0.003206 -0.001415 0.010071
v -0.003206 -0.001415 0.012097
v -0.003206 0.447121 0.012097
v -0.003206 0.447121 0.010071
v -0.007145 -0.001415 0.001098
v -0.007145 -0.001415 -0.000927
v -0.007145 0.447121 0.001098
v -0.007145 0.447121 -0.000927
v 0.000000 0.318894 -0.001684
v 0.119088 0.437982 -0.001684
v -0.119088 0.437982 -0.001684
v 0.000000 0.557071 -0.001684
v -0.119088 0.437982 -0.006001
v 0.000000 0.557071 -0.006001
v 0.000000 0.318894 -0.006001
v 0.119088 0.437982 -0.006001
v 0.010217 -0.001415 -0.001013
v 0.005145 -0.001415 -0.001013
v 0.010217 0.447121 -0.001013
v 0.005145 0.447121 -0.001013
v 0.010217 0.447121 0.001013
v 0.005145 0.447121 0.001013
v 0.010217 -0.001415 0.001013
v 0.005145 -0.001415 0.001013
v -0.012285 -0.001415 -0.000927
v -0.012285 -0.001415 0.001098
v -0.012285 0.447121 -0.000927
v -0.012285 0.447121 0.001098
v 0.001772 -0.001415 0.010071
v 0.001772 -0.001415 0.012097
v 0.001772 0.447121 0.012097
v 0.001772 0.447121 0.010071
v -0.003206 -0.001415 0.010071
v -0.003206 -0.001415 0.012097
v -0.003206 0.447121 0.012097
v -0.003206 0.447121 0.010071
v -0.007145 -0.001415 0.001098
v -0.007145 -0.001415 -0.000927
v -0.007145 0.447121 0.001098
v -0.007145 0.447121 -0.000927
vt 0.107251 0.819150
vt 0.188063 0.899962
vt 0.026439 0.899962
vt 0.107251 0.980774
vt 0.077210 0.894479
vt 0.077210 0.967930
vt 0.061951 0.894479
vt 0.061951 0.967930
vt 1.001842 0.508567
vt 0.497339 1.005070
vt 0.500081 -0.011128
vt -0.009905 0.503084
vt 0.119675 0.958224
vt 0.119675 0.876547
vt 0.134935 0.958224
vt 0.134935 0.876547
vt 0.095128 0.876547
vt 0.110387 0.876547
vt 0.095128 0.958224
vt 0.110387 0.958224
vt 0.061951 0.848445
vt 0.077210 0.848445
vt 0.954329 0.008083
vt 0.956092 0.008083
vt 0.954329 0.086628
vt 0.956092 0.086628
vt 0.953441 0.086628
vt 0.954973 0.086628
vt 0.953441 0.008083
vt 0.954973 0.008083
vt 0.967162 0.008083
vt 0.968056 0.008083
vt 0.967162 0.086628
vt 0.968056 0.086628
vt 0.944860 0.008083
vt 0.943939 0.008083
vt 0.943939 0.086628
vt 0.944860 0.086628
vt 0.983400 0.008083
vt 0.982479 0.008083
vt 0.977255 0.008083
vt 0.978035 0.008083
vt 0.982479 0.086628
vt 0.978035 0.086628
vt 0.983400 0.086628
vt 0.977255 0.086628
vt 0.966507 0.008083
vt 0.965371 0.008083
vt 0.966507 0.086628
vt 0.965371 0.086628
vt 0.107251 0.819150
vt 0.188063 0.899962
vt 0.026439 0.899962
vt 0.107251 0.980774
vt 0.077210 0.894479
vt 0.077210 0.967930
vt 0.061951 0.894479
vt 0.061951 0.967930
vt 1.001842 0.508567
vt 0.497339 1.005070
vt 0.500081 -0.011128
vt -0.009905 0.503084
vt 0.119675 0.958224
vt 0.119675 0.876547
vt 0.134935 0.958224
vt 0.134935 0.876547
vt 0.095128 0.876547
vt 0.110387 0.876547
vt 0.095128 0.958224
vt 0.110387 0.958224
vt 0.061951 0.848445
vt 0.077210 0.848445
vt 0.954329 0.008083
vt 0.956092 0.008083
vt 0.954329 0.086628
vt 0.956092 0.086628
vt 0.953441 0.086628
vt 0.954973 0.086628
vt 0.953441 0.008083
vt 0.954973 0.008083
vt 0.967162 0.008083
vt 0.968056 0.008083
vt 0.967162 0.086628
vt 0.968056 0.086628
vt 0.944860 0.008083
vt 0.943939 0.008083
vt 0.943939 0.086628
vt 0.944860 0.086628
vt 0.983400 0.008083
vt 0.982479 0.008083
vt 0.977255 0.008083
vt 0.978035 0.008083
vt 0.982479 0.086628
vt 0.978035 0.086628
vt 0.983400 0.086628
vt 0.977255 0.086628
vt 0.966507 0.008083
vt 0.965371 0.008083
vt 0.966507 0.086628
vt 0.965371 0.086628
vn 0.000000 0.000000 1.000000
vn 0.000000 0.000000 1.000000
vn 0.000000 0.000000 1.000000
vn 0.000000 0.000000 1.000000
vn 0.000000 0.000000 1.000000
vn 0.000000 0.000000 1.000000
vn -0.707107 0.707107 0.000003
vn -0.707107 0.707107 0.000000
vn -0.707107 0.707107 0.000000
vn -0.707107 0.707107 0.000000
vn -0.707107 0.707107 -0.000003
vn -0.707107 0.707107 0.000000
vn 0.000000 0.000000 -1.000000
vn 0.000000 0.000000 -1.000000
vn 0.000000 0.000000 -1.000000
vn 0.000000 0.000000 -1.000000
vn 0.000000 0.000000 -1.000000
vn 0.000000 0.000000 -1.000000
vn 0.707107 -0.707107 0.000003
vn 0.707107 -0.707107 0.000000
vn 0.707107 -0.707107 0.000000
vn 0.707107 -0.707107 0.000000
vn 0.707107 -0.707107 -0.000003
vn 0.707107 -0.707107 0.000000
vn 0.707107 0.707107 -0.000003
vn 0.707107 0.707107 -0.000003
vn 0.707107 0.707107 -0.000003
vn 0.707107 0.707107 -0.000003
vn 0.707107 0.707107 -0.000003
vn 0.707107 0.707107 -0.000003
vn -0.707107 -0.707107 -0.000003
vn -0.707107 -0.707107 -0.000003
vn -0.707107 -0.707107 -0.000003
vn -0.707107 -0.707107 -0.000003
vn -0.707107 -0.707107 -0.000003
vn -0.707107 -0.707107 -0.000003
vn 0.000000 0.000000 -1.000000
vn 0.000000 0.000000 -1.000000
vn 0.000000 0.000000 -1.000000
vn 0.000000 0.000000 -1.000000
vn 0.000000 0.000000 -1.000000
vn 0.000000 0.000000 -1.000000
vn 0.000000 1.000000 -0.000005
vn 0.000000 1.000000 -0.000005
vn 0.000000 1.000000 -0.000005
vn 0.000000 1.000000 -0.000005
vn 0.000000 1.000000 -0.000005
vn 0.000000 1.000000 -0.000005
vn 0.000000 0.000000 1.000000
vn 0.000000 0.000000 1.000000
vn 0.000000 0.000000 1.000000
vn 0.000000 0.000000 1.000000
vn 0.000000 0.000000 1.000000
vn 0.000000 0.000000 1.000000
vn 0.000000 -1.000000 0.000000
vn 0.000000 -1.000000 0.000000
vn 0.000000 -1.000000 0.000000
vn 0.000000 -1.000000 0.000000
vn 0.000000 -1.000000 0.000000
vn 0.000000 -1.000000 0.000000
vn -1.000000 0.000000 0.000000
vn -1.000000 0.000000 0.000000
vn -1.000000 0.000000 0.000000
vn -1.000000 0.000000 0.000000
vn -1.000000 0.000000 0.000000
vn -1.000000 0.000000 0.000000
vn 1.000000 0.000000 0.000000
vn 1.000000 0.000000 0.000000
vn 1.000000 0.000000 0.000000
vn 1.000000 0.000000 0.000000
vn 1.000000 0.000000 0.000000
vn 1.000000 0.000000 0.000000
vn 0.000000 -1.000000 0.000000
vn 0.000000 -1.000000 0.000000
vn 0.000000 -1.000000 0.000000
vn 0.000000 -1.000000 0.000000
vn 0.000000 -1.000000 0.000000
vn 0.000000 -1.000000 0.000000
vn 0.956684 0.000000 0.291129
vn 0.956684 0.000000 0.291129
vn 0.956684 0.000000 0.291129
vn 0.956684 0.000000 0.291129
vn 0.956684 0.000000 0.291129
vn 0.956684 0.000000 0.291129
vn 0.000000 1.000000 -0.000006
vn 0.000000 1.000000 -0.000006
vn 0.000000 1.000000 -0.000006
vn 0.000000 1.000000 -0.000006
vn 0.000000 1.000000 -0.000006
vn 0.000000 1.000000 -0.000006
vn -0.956684 0.000000 -0.291129
vn -0.956684 0.000000 -0.291129
vn -0.956684 0.000000 -0.291129
vn -0.956684 0.000000 -0.291129
vn -0.956684 0.000000 -0.291129
vn -0.956684 0.000000 -0.291129
vn 0.000001 -1.000000 0.000000
vn 0.000001 -1.000000 0.000000
vn 0.000001 -1.000000 0.000000
vn 0.000001 -1.000000 0.000000
vn 0.000001 -1.000000 0.000000
vn 0.000001 -1.000000 0.000000
vn 0.000000 0.000000 1.000000
vn 0.000000 0.000000 1.000000
vn 0.000000 0.000000 1.000000
vn 0.000000 0.000000 1.000000
vn 0.000000 0.000000 1.000000
vn 0.000000 0.000000 1.000000
vn 0.000000 1.000000 -0.000009
vn 0.000000 1.000000 -0.000009
vn 0.000000 1.000000 -0.000009
vn 0.000000 1.000000 -0.000009
vn 0.000000 1.000000 -0.000009
vn 0.000000 1.000000 -0.000009
vn 0.000000 0.000000 -1.000000
vn 0.000000 0.000000 -1.000000
vn 0.000000 0.000000 -1.000000
vn 0.000000 0.000000 -1.000000
vn 0.000000 0.000000 -1.000000
vn 0.000000 0.000000 -1.000000
vn 0.000000 -1.000000 0.000000
vn 0.000000 -1.000000 0.000000
vn 0.000000 -1.000000 0.000000
vn 0.000000 -1.000000 0.000000
vn 0.000000 -1.000000 0.000000
vn 0.000000 -1.000000 0.000000
vn -0.941420 0.000000 0.337236
vn -0.941420 0.000000 0.337236
vn -0.941420 0.000000 0.337236
vn -0.941420 0.000000 0.337236
vn -0.941420 0.000000 0.337236
vn -0.941420 0.000000 0.337236
vn 0.000000 1.000000 -0.000002
vn 0.000000 1.000000 -0.000002
vn 0.000000 1.000000 -0.000002
vn 0.000000 1.000000 -0.000002
vn 0.000000 1.000000 -0.000002
vn 0.000000 1.000000 -0.000002
vn 0.941420 0.000000 -0.337236
vn 0.941420 0.000000 -0.337236
vn 0.941420 0.000000 -0.337236
vn 0.941420 0.000000 -0.337236
vn 0.941420 0.000000 -0.337236
vn 0.941420 0.000000 -0.337236
vn 0.000000 -1.000000 0.000000
vn 0.000000 -1.000000 0.000000
vn 0.000000 -1.000000 0.000000
vn 0.000000 -1.000000 0.000000
vn 0.000000 -1.000000 0.000000
vn 0.000000 -1.000000 0.000000
vn 0.000000 0.000000 1.000000
vn 0.000000 0.000000 1.000000
vn 0.000000 0.000000 1.000000
vn 0.000000 0.000000 1.000000
vn 0.000000 0.000000 1.000000
vn 0.000000 0.000000 1.000000
vn 0.000000 1.000000 -0.000007
vn 0.000000 1.000000 -0.000007
vn 0.000000 1.000000 -0.000007
vn 0.000000 1.000000 -0.000007
vn 0.000000 1.000000 -0.000007
vn 0.000000 1.000000 -0.000007
vn 0.000000 0.000000 -1.000000
vn 0.000000 0.000000 -1.000000
vn 0.000000 0.000000 -1.000000
vn 0.000000 0.000000 -1.000000
vn 0.000000 0.000000 -1.000000
vn 0.000000 0.000000 -1.000000
vn 0.000000 0.000000 1.000000
vn 0.000000 0.000000 1.000000
vn 0.000000 0.000000 1.000000
vn 0.000000 0.000000 1.000000
vn 0.000000 0.000000 1.000000
vn 0.000000 0.000000 1.000000
vn -0.707107 0.707107 0.000003
vn -0.707107 0.707107 0.000000
vn -0.707107 0.707107 0.000000
vn -0.707107 0.707107 0.000000
vn -0.707107 0.707107 -0.000003
vn -0.707107 0.707107 0.000000
vn 0.000000 0.000000 -1.000000
vn 0.000000 0.000000 -1.000000
vn 0.000000 0.000000 -1.000000
vn 0.000000 0.000000 -1.000000
vn 0.000000 0.000000 -1.000000
vn 0.000000 0.000000 -1.000000
vn 0.707107 -0.707107 0.000003
vn 0.707107 -0.707107 0.000000
vn 0.707107 -0.707107 0.000000
vn 0.707107 -0.707107 0.000000
vn 0.707107 -0.707107 -0.000003
vn 0.707107 -0.707107 0.000000
vn 0.707107 0.707107 -0.000003
vn 0.707107 0.707107 -0.000003
vn 0.707107 0.707107 -0.000003
vn 0.707107 0.707107 -0.000003
vn 0.707107 0.707107 -0.000003
vn 0.707107 0.707107 -0.000003
vn -0.707107 -0.707107 -0.000003
vn -0.707107 -0.707107 -0.000003
vn -0.707107 -0.707107 -0.000003
vn -0.707107 -0.707107 -0.000003
vn -0.707107 -0.707107 -0.000003
vn -0.707107 -0.707107 -0.000003
vn 0.000000 0.000000 -1.000000
vn 0.000000 0.000000 -1.000000
vn 0.000000 0.000000 -1.000000
vn 0.000000 0.000000 -1.000000
vn 0.000000 0.000000 -1.000000
vn 0.000000 0.000000 -1.000000
vn 0.000000 1.000000 -0.000005
vn 0.000000 1.000000 -0.000005
vn 0.000000 1.000000 -0.000005
vn 0.000000 1.000000 -0.000005
vn 0.000000 1.000000 -0.000005
vn 0.000000 1.000000 -0.000005
vn 0.000000 0.000000 1.000000
vn 0.000000 0.000000 1.000000
vn 0.000000 0.000000 1.000000
vn 0.000000 0.000000 1.000000
vn 0.000000 0.000000 1.000000
vn 0.000000 0.000000 1.000000
vn 0.000000 -1.000000 0.000000
vn 0.000000 -1.000000 0.000000
vn 0.000000 -1.000000 0.000000
vn 0.000000 -1.000000 0.000000
vn 0.000000 -1.000000 0.000000
vn 0.000000 -1.000000 0.000000
vn -1.000000 0.000000 0.000000
vn -1.000000 0.000000 0.000000
vn -1.000000 0.000000 0.000000
vn -1.000000 0.000000 0.000000
vn -1.000000 0.000000 0.000000
vn -1.000000 0.000000 0.000000
vn 1.000000 0.000000 0.000000
vn 1.000000 0.000000 0.000000
vn 1.000000 0.000000 0.000000
vn 1.000000 0.000000 0.000000
vn 1.000000 0.000000 0.000000
vn 1.000000 0.000000 0.000000
vn 0.000000 -1.000000 0.000000
vn 0.000000 -1.000000 0.000000
vn 0.000000 -1.000000 0.000000
vn 0.000000 -1.000000 0.000000
vn 0.000000 -1.000000 0.000000
vn 0.000000 -1.000000 0.000000
vn 0.956684 0.000000 0.291129
vn 0.956684 0.000000 0.291129
vn 0.956684 0.000000 0.291129
vn 0.956684 0.000000 0.291129
vn 0.956684 0.000000 0.291129
vn 0.956684 0.000000 0.291129
vn 0.000000 1.000000 -0.000006
vn 0.000000 1.000000 -0.000006
vn 0.000000 1.000000 -0.000006
vn 0.000000 1.000000 -0.000006
vn 0.000000 1.000000 -0.000006
vn 0.000000 1.000000 -0.000006
vn -0.956684 0.000000 -0.291129
vn -0.956684 0.000000 -0.291129
vn -0.956684 0.000000 -0.291129
vn -0.956684 0.000000 -0.291129
vn -0.956684 0.000000 -0.291129
vn -0.956684 0.000000 -0.291129
vn 0.000001 -1.000000 0.000000
vn 0.000001 -1.000000 0.000000
vn 0.000001 -1.000000 0.000000
vn 0.000001 -1.000000 0.000000
vn 0.000001 -1.000000 0.000000
vn 0.000001 -1.000000 0.000000
vn 0.000000 0.000000 1.000000
vn 0.000000 0.000000 1.000000
vn 0.000000 0.000000 1.000000
vn 0.000000 0.000000 1.000000
vn 0.000000 0.000000 1.000000
vn 0.000000 0.000000 1.000000
vn 0.000000 1.000000 -0.000009
vn 0.000000 1.000000 -0.000009
vn 0.000000 1.000000 -0.000009
vn 0.000000 1.000000 -0.000009
vn 0.000000 1.000000 -0.000009
vn 0.000000 1.000000 -0.000009
vn 0.000000 0.000000 -1.000000
vn 0.000000 0.000000 -1.000000
vn 0.000000 0.000000 -1.000000
vn 0.000000 0.000000 -1.000000
vn 0.000000 0.000000 -1.000000
vn 0.000000 0.000000 -1.000000
vn 0.000000 -1.000000 0.000000
vn 0.000000 -1.000000 0.000000
vn 0.000000 -1.000000 0.000000
vn 0.000000 -1.000000 0.000000
vn 0.000000 -1.000000 0.000000
vn 0.000000 -1.000000 0.000000
vn -0.941420 0.000000 0.337236
vn -0.941420 0.000000 0.337236
vn -0.941420 0.000000 0.337236
vn -0.941420 0.000000 0.337236
vn -0.941420 0.000000 0.337236
vn -0.941420 0.000000 0.337236
vn 0.000000 1.000000 -0.000002
vn 0.000000 1.000000 -0.000002
vn 0.000000 1.000000 -0.000002
vn 0.000000 1.000000 -0.000002
vn 0.000000 1.000000 -0.000002
vn 0.000000 1.000000 -0.000002
vn 0.941420 0.000000 -0.337236
vn 0.941420 0.000000 -0.337236
vn 0.941420 0.000000 -0.337236
vn 0.941420 0.000000 -0.337236
vn 0.941420 0.000000 -0.337236
vn 0.941420 0.000000 -0.337236
vn 0.000000 -1.000000 0.000000
vn 0.000000 -1.000000 0.000000
vn 0.000000 -1.000000 0.000000
vn 0.000000 -1.000000 0.000000
vn 0.000000 -1.000000 0.000000
vn 0.000000 -1.000000 0.000000
vn 0.000000 0.000000 1.000000
vn 0.000000 0.000000 1.000000
vn 0.000000 0.000000 1.000000
vn 0.000000 0.000000 1.000000
vn 0.000000 0.000000 1.000000
vn 0.000000 0.000000 1.000000
vn 0.000000 1.000000 -0.000007
vn 0.000000 1.000000 -0.000007
vn 0.000000 1.000000 -0.000007
vn 0.000000 1.000000 -0.000007
vn 0.000000 1.000000 -0.000007
vn 0.000000 1.000000 -0.000007
vn 0.000000 0.000000 -1.000000
vn 0.000000 0.000000 -1.000000
vn 0.000000 0.000000 -1.000000
vn 0.000000 0.000000 -1.000000
vn 0.000000 0.000000 -1.000000
vn 0.000000 0.000000 -1.000000
s off
g Mesh
usemtl initialShadingGroup
f 1/1/1 2/2/2 3/3/3
f 2/2/4 4/4/5 3/3/6
f 3/5/7 4/6/8 5/7/9
f 4/6/10 6/8/11 5/7/12
f 5/9/13 6/10/14 7/11/15
f 6/10/16 8/12/17 7/11/18
f 7/13/19 8/14/20 1/15/21
f 8/14/22 2/16/23 1/15/24
f 2/17/25 8/18/26 4/19/27
f 8/18/28 6/20/29 4/19/30
f 7/21/31 1/22/32 5/7/33
f 1/22/34 3/5/35 5/7/36
f 9/23/37 10/24/38 11/25/39
f 10/24/40 12/26/41 11/25/42
f 11/25/43 12/26/44 13/27/45
f 12/26/46 14/28/47 13/27/48
f 13/27/49 14/28/50 15/29/51
f 14/28/52 16/30/53 15/29/54
f 15/29/55 16/30/56 9/23/57
f 16/30/58 10/24/59 9/23/60
f 17/31/61 18/32/62 19/33/63
f 18/32/64 20/34/65 19/33/66
f 15/29/67 9/23/68 13/27/69
f 9/23/70 11/25/71 13/27/72
f 10/24/73 16/30/74 21/35/75
f 16/30/76 22/36/77 21/35/78
f 16/30/79 14/28/80 22/36/81
f 14/28/82 23/37/83 22/36/84
f 12/26/85 24/38/86 14/28/87
f 14/28/88 24/38/89 23/37/90
f 12/26/91 10/24/92 24/38/93
f 10/24/94 21/35/95 24/38/96
f 21/39/97 22/40/98 25/41/99
f 22/40/100 26/42/101 25/41/102
f 22/40/103 23/43/104 26/42/105
f 23/43/106 27/44/107 26/42/108
f 23/43/109 24/45/110 27/44/111
f 24/45/112 28/46/113 27/44/114
f 24/45/115 21/39/116 28/46/117
f 21/39/118 25/41/119 28/46/120
f 26/42/121 29/47/122 25/41/123
f 25/41/124 29/47/125 30/48/126
f 26/42/127 27/44/128 29/47/129
f 27/44/130 31/49/131 29/47/132
f 27/44/133 28/46/134 31/49/135
f 28/46/136 32/50/137 31/49/138
f 28/46/139 25/41/140 32/50/141
f 25/41/142 30/48/143 32/50/144
f 30/48/145 29/47/146 17/31/147
f 29/47/148 18/32/149 17/31/150
f 29/47/151 31/49/152 18/32/153
f 31/49/154 20/34/155 18/32/156
f 31/49/157 32/50/158 20/34/159
f 32/50/160 19/33/161 20/34/162
f 32/50/163 30/48/164 19/33/165
f 30/48/166 17/31/167 19/33/168
f 33/51/169 34/52/170 35/53/171
f 34/52/172 36/54/173 35/53/174
f 35/55/175 36/56/176 37/57/177
f 36/56/178 38/58/179 37/57/180
f 37/59/181 38/60/182 39/61/183
f 38/60/184 40/62/185 39/61/186
f 39/63/187 40/64/188 33/65/189
f 40/64/190 34/66/191 33/65/192
f 34/67/193 40/68/194 36/69/195
f 40/68/196 38/70/197 36/69/198
f 39/71/199 33/72/200 37/57/201
f 33/72/202 35/55/203 37/57/204
f 41/73/205 42/74/206 43/75/207
f 42/74/208 44/76/209 43/75/210
f 43/75/211 44/76/212 45/77/213
f 44/76/214 46/78/215 45/77/216
f 45/77/217 46/78/218 47/79/219
f 46/78/220 48/80/221 47/79/222
f 47/79/223 48/80/224 41/73/225
f 48/80/226 42/74/227 41/73/228
f 49/81/229 50/82/230 51/83/231
f 50/82/232 52/84/233 51/83/234
f 47/79/235 41/73/236 45/77/237
f 41/73/238 43/75/239 45/77/240
f 42/74/241 48/80/242 53/85/243
f 48/80/244 54/86/245 53/85/246
f 48/80/247 46/78/248 54/86/249
f 46/78/250 55/87/251 54/86/252
f 44/76/253 56/88/254 46/78/255
f 46/78/256 56/88/257 55/87/258
f 44/76/259 42/74/260 56/88/261
f 42/74/262 53/85/263 56/88/264
f 53/89/265 54/90/266 57/91/267
f 54/90/268 58/92/269 57/91/270
f 54/90/271 55/93/272 58/92/273
f 55/93/274 59/94/275 58/92/276
f 55/93/277 56/95/278 59/94/279
f 56/95/280 60/96/281 59/94/282
f 56/95/283 53/89/284 60/96/285
f 53/89/286 57/91/287 60/96/288
f 58/92/289 61/97/290 57/91/291
f 57/91/292 61/97/293 62/98/294
f 58/92/295 59/94/296 61/97/297
f 59/94/298 63/99/299 61/97/300
f 59/94/301 60/96/302 63/99/303
f 60/96/304 64/100/305 63/99/306
f 60/96/307 57/91/308 64/100/309
f 57/91/310 62/98/311 64/100/312
f 62/98/313 61/97/314 49/81/315
f 61/97/316 50/82/317 49/81/318
f 61/97/319 63/99/320 50/82/321
f 63/99/322 52/84/323 50/82/324
f 63/99/325 64/100/326 52/84/327
f 64/100/328 51/83/329 52/84/330
f 64/100/331 62/98/332 51/83/333
f 62/98/334 49/81/335 51/83/336
