# This file uses centimeters as units for non-parametric coordinates.

v -0.062222 0.360432 -0.001297
v 0.062191 0.360432 -0.001297
v -0.062222 0.512436 -0.001297
v 0.062191 0.512436 -0.001297
v -0.062222 0.512436 -0.004561
v 0.062191 0.512436 -0.004561
v -0.062222 0.360432 -0.004561
v 0.062191 0.360432 -0.004561
v 0.009199 -0.001788 -0.001023
v 0.005093 -0.001788 -0.001023
v 0.009199 0.489839 -0.001023
v 0.005093 0.489839 -0.001023
v 0.009199 0.489839 0.001023
v 0.005093 0.489839 0.001023
v 0.009199 -0.001788 0.001023
v 0.005093 -0.001788 0.001023
v -0.009019 -0.001788 -0.000936
v -0.009019 -0.001788 0.001109
v -0.009019 0.489839 -0.000936
v -0.009019 0.489839 0.001109
v 0.002362 -0.001788 0.010170
v 0.002362 -0.001788 0.012216
v 0.002362 0.489839 0.012216
v 0.002362 0.489839 0.010170
v -0.001669 -0.001788 0.010170
v -0.001669 -0.001788 0.012216
v -0.001669 0.489839 0.012216
v -0.001669 0.489839 0.010170
v -0.004858 -0.001788 0.001109
v -0.004858 -0.001788 -0.000936
v -0.004858 0.489839 0.001109
v -0.004858 0.489839 -0.000936
v 0.009199 -0.001788 -0.001023
v 0.005093 -0.001788 -0.001023
v 0.009199 0.489839 -0.001023
v 0.005093 0.489839 -0.001023
v 0.009199 0.489839 0.001023
v 0.005093 0.489839 0.001023
v 0.009199 -0.001788 0.001023
v 0.005093 -0.001788 0.001023
v -0.009019 -0.001788 -0.000936
v -0.009019 -0.001788 0.001109
v -0.009019 0.489839 -0.000936
v -0.009019 0.489839 0.001109
v 0.002362 -0.001788 0.010170
v 0.002362 -0.001788 0.012216
v 0.002362 0.489839 0.012216
v 0.002362 0.489839 0.010170
v -0.001669 -0.001788 0.010170
v -0.001669 -0.001788 0.012216
v -0.001669 0.489839 0.012216
v -0.001669 0.489839 0.010170
v -0.004858 -0.001788 0.001109
v -0.004858 -0.001788 -0.000936
v -0.004858 0.489839 0.001109
v -0.004858 0.489839 -0.000936
vt 0.941981 0.801205
vt 0.978174 0.801205
vt 0.941981 0.971476
vt 0.978174 0.971476
vt 0.988318 0.862761
vt 0.988318 0.801205
vt 0.990529 0.862761
vt 0.990529 0.801205
vt 0.923089 0.996039
vt 0.007564 0.996039
vt 0.923089 0.002720
vt 0.007564 0.002720
vt 0.992422 0.862761
vt 0.992422 0.801205
vt 0.994633 0.862761
vt 0.994633 0.801205
vt 0.980109 0.801205
vt 0.982320 0.801205
vt 0.980109 0.971476
vt 0.982320 0.971476
vt 0.984213 0.801205
vt 0.986425 0.801205
vt 0.984213 0.971476
vt 0.986425 0.971476
vt 0.954329 0.008083
vt 0.956092 0.008083
vt 0.954329 0.086628
vt 0.956092 0.086628
vt 0.953441 0.086628
vt 0.954973 0.086628
vt 0.953441 0.008083
vt 0.954973 0.008083
vt 0.967162 0.008083
vt 0.968056 0.008083
vt 0.967162 0.086628
vt 0.968056 0.086628
vt 0.944860 0.008083
vt 0.943939 0.008083
vt 0.943939 0.086628
vt 0.944860 0.086628
vt 0.983400 0.008083
vt 0.982479 0.008083
vt 0.977255 0.008083
vt 0.978035 0.008083
vt 0.982479 0.086628
vt 0.978035 0.086628
vt 0.983400 0.086628
vt 0.977255 0.086628
vt 0.966507 0.008083
vt 0.965371 0.008083
vt 0.966507 0.086628
vt 0.965371 0.086628
vt 0.954329 0.008083
vt 0.956092 0.008083
vt 0.954329 0.086628
vt 0.956092 0.086628
vt 0.953441 0.086628
vt 0.954973 0.086628
vt 0.953441 0.008083
vt 0.954973 0.008083
vt 0.967162 0.008083
vt 0.968056 0.008083
vt 0.967162 0.086628
vt 0.968056 0.086628
vt 0.944860 0.008083
vt 0.943939 0.008083
vt 0.943939 0.086628
vt 0.944860 0.086628
vt 0.983400 0.008083
vt 0.982479 0.008083
vt 0.977255 0.008083
vt 0.978035 0.008083
vt 0.982479 0.086628
vt 0.978035 0.086628
vt 0.983400 0.086628
vt 0.977255 0.086628
vt 0.966507 0.008083
vt 0.965371 0.008083
vt 0.966507 0.086628
vt 0.965371 0.086628
vn 0.000000 0.000000 1.000000
vn 0.000000 0.000000 1.000000
vn 0.000000 0.000000 1.000000
vn 0.000000 0.000000 1.000000
vn 0.000000 1.000000 0.000005
vn 0.000000 1.000000 0.000000
vn 0.000000 1.000000 0.000000
vn 0.000000 1.000000 -0.000005
vn 0.000000 0.000000 -1.000000
vn 0.000000 -0.000000 -1.000000
vn 0.000000 -0.000000 -1.000000
vn 0.000000 -0.000000 -1.000000
vn 0.000000 -1.000000 0.000011
vn 0.000000 -1.000000 -0.000000
vn 0.000000 -1.000000 -0.000000
vn 0.000000 -1.000000 -0.000011
vn 1.000000 -0.000000 0.000000
vn 1.000000 -0.000000 0.000000
vn 1.000000 -0.000000 0.000000
vn 1.000000 -0.000000 0.000000
vn -1.000000 -0.000000 0.000000
vn -1.000000 0.000000 0.000000
vn -1.000000 0.000000 0.000000
vn -1.000000 0.000000 0.000000
vn 0.000000 0.000000 -1.000000
vn 0.000000 0.000000 -1.000000
vn 0.000000 0.000000 -1.000000
vn 0.000000 0.000000 -1.000000
vn 0.000000 0.000000 -1.000000
vn 0.000000 0.000000 -1.000000
vn 0.000000 1.000000 -0.000006
vn 0.000000 1.000000 -0.000006
vn 0.000000 1.000000 -0.000006
vn 0.000000 1.000000 -0.000006
vn 0.000000 1.000000 -0.000006
vn 0.000000 1.000000 -0.000006
vn 0.000000 0.000000 1.000000
vn 0.000000 0.000000 1.000000
vn 0.000000 0.000000 1.000000
vn 0.000000 0.000000 1.000000
vn 0.000000 0.000000 1.000000
vn 0.000000 0.000000 1.000000
vn 0.000000 -1.000000 0.000000
vn 0.000000 -1.000000 0.000000
vn 0.000000 -1.000000 0.000000
vn 0.000000 -1.000000 0.000000
vn 0.000000 -1.000000 0.000000
vn 0.000000 -1.000000 0.000000
vn -1.000000 0.000000 0.000000
vn -1.000000 0.000000 0.000000
vn -1.000000 0.000000 0.000000
vn -1.000000 0.000000 0.000000
vn -1.000000 0.000000 0.000000
vn -1.000000 0.000000 0.000000
vn 1.000000 0.000000 0.000000
vn 1.000000 0.000000 0.000000
vn 1.000000 0.000000 0.000000
vn 1.000000 0.000000 0.000000
vn 1.000000 0.000000 0.000000
vn 1.000000 0.000000 0.000000
vn 0.000000 -1.000000 0.000000
vn 0.000000 -1.000000 0.000000
vn 0.000000 -1.000000 0.000000
vn 0.000000 -1.000000 0.000000
vn 0.000000 -1.000000 0.000000
vn 0.000000 -1.000000 0.000000
vn 0.955856 0.000000 0.293837
vn 0.955856 0.000000 0.293837
vn 0.955856 0.000000 0.293837
vn 0.955856 0.000000 0.293837
vn 0.955856 0.000000 0.293837
vn 0.955856 0.000000 0.293837
vn 0.000000 1.000000 -0.000008
vn 0.000000 1.000000 -0.000008
vn 0.000000 1.000000 -0.000008
vn 0.000000 1.000000 -0.000008
vn 0.000000 1.000000 -0.000008
vn 0.000000 1.000000 -0.000008
vn -0.955856 0.000000 -0.293837
vn -0.955856 0.000000 -0.293837
vn -0.955856 0.000000 -0.293837
vn -0.955856 0.000000 -0.293837
vn -0.955856 0.000000 -0.293837
vn -0.955856 0.000000 -0.293837
vn 0.000001 -1.000000 0.000000
vn 0.000001 -1.000000 0.000000
vn 0.000001 -1.000000 0.000000
vn 0.000001 -1.000000 0.000000
vn 0.000001 -1.000000 0.000000
vn 0.000001 -1.000000 0.000000
vn 0.000000 0.000000 1.000000
vn 0.000000 0.000000 1.000000
vn 0.000000 0.000000 1.000000
vn 0.000000 0.000000 1.000000
vn 0.000000 0.000000 1.000000
vn 0.000000 0.000000 1.000000
vn 0.000000 1.000000 -0.000011
vn 0.000000 1.000000 -0.000011
vn 0.000000 1.000000 -0.000011
vn 0.000000 1.000000 -0.000011
vn 0.000000 1.000000 -0.000011
vn 0.000000 1.000000 -0.000011
vn 0.000000 0.000000 -1.000000
vn 0.000000 0.000000 -1.000000
vn 0.000000 0.000000 -1.000000
vn 0.000000 0.000000 -1.000000
vn 0.000000 0.000000 -1.000000
vn 0.000000 0.000000 -1.000000
vn 0.000000 -1.000000 0.000000
vn 0.000000 -1.000000 0.000000
vn 0.000000 -1.000000 0.000000
vn 0.000000 -1.000000 0.000000
vn 0.000000 -1.000000 0.000000
vn 0.000000 -1.000000 0.000000
vn -0.940327 0.000000 0.340272
vn -0.940327 0.000000 0.340272
vn -0.940327 0.000000 0.340272
vn -0.940327 0.000000 0.340272
vn -0.940327 0.000000 0.340272
vn -0.940327 0.000000 0.340272
vn 0.000000 1.000000 -0.000003
vn 0.000000 1.000000 -0.000003
vn 0.000000 1.000000 -0.000003
vn 0.000000 1.000000 -0.000003
vn 0.000000 1.000000 -0.000003
vn 0.000000 1.000000 -0.000003
vn 0.940327 0.000000 -0.340272
vn 0.940327 0.000000 -0.340272
vn 0.940327 0.000000 -0.340272
vn 0.940327 0.000000 -0.340272
vn 0.940327 0.000000 -0.340272
vn 0.940327 0.000000 -0.340272
vn 0.000000 -1.000000 0.000000
vn 0.000000 -1.000000 0.000000
vn 0.000000 -1.000000 0.000000
vn 0.000000 -1.000000 0.000000
vn 0.000000 -1.000000 0.000000
vn 0.000000 -1.000000 0.000000
vn 0.000000 0.000000 1.000000
vn 0.000000 0.000000 1.000000
vn 0.000000 0.000000 1.000000
vn 0.000000 0.000000 1.000000
vn 0.000000 0.000000 1.000000
vn 0.000000 0.000000 1.000000
vn 0.000000 1.000000 -0.000009
vn 0.000000 1.000000 -0.000009
vn 0.000000 1.000000 -0.000009
vn 0.000000 1.000000 -0.000009
vn 0.000000 1.000000 -0.000009
vn 0.000000 1.000000 -0.000009
vn 0.000000 0.000000 -1.000000
vn 0.000000 0.000000 -1.000000
vn 0.000000 0.000000 -1.000000
vn 0.000000 0.000000 -1.000000
vn 0.000000 0.000000 -1.000000
vn 0.000000 0.000000 -1.000000
vn 0.000000 0.000000 -1.000000
vn 0.000000 0.000000 -1.000000
vn 0.000000 0.000000 -1.000000
vn 0.000000 0.000000 -1.000000
vn 0.000000 0.000000 -1.000000
vn 0.000000 0.000000 -1.000000
vn 0.000000 1.000000 -0.000006
vn 0.000000 1.000000 -0.000006
vn 0.000000 1.000000 -0.000006
vn 0.000000 1.000000 -0.000006
vn 0.000000 1.000000 -0.000006
vn 0.000000 1.000000 -0.000006
vn 0.000000 0.000000 1.000000
vn 0.000000 0.000000 1.000000
vn 0.000000 0.000000 1.000000
vn 0.000000 0.000000 1.000000
vn 0.000000 0.000000 1.000000
vn 0.000000 0.000000 1.000000
vn 0.000000 -1.000000 0.000000
vn 0.000000 -1.000000 0.000000
vn 0.000000 -1.000000 0.000000
vn 0.000000 -1.000000 0.000000
vn 0.000000 -1.000000 0.000000
vn 0.000000 -1.000000 0.000000
vn -1.000000 0.000000 0.000000
vn -1.000000 0.000000 0.000000
vn -1.000000 0.000000 0.000000
vn -1.000000 0.000000 0.000000
vn -1.000000 0.000000 0.000000
vn -1.000000 0.000000 0.000000
vn 1.000000 0.000000 0.000000
vn 1.000000 0.000000 0.000000
vn 1.000000 0.000000 0.000000
vn 1.000000 0.000000 0.000000
vn 1.000000 0.000000 0.000000
vn 1.000000 0.000000 0.000000
vn 0.000000 -1.000000 0.000000
vn 0.000000 -1.000000 0.000000
vn 0.000000 -1.000000 0.000000
vn 0.000000 -1.000000 0.000000
vn 0.000000 -1.000000 0.000000
vn 0.000000 -1.000000 0.000000
vn 0.955856 0.000000 0.293837
vn 0.955856 0.000000 0.293837
vn 0.955856 0.000000 0.293837
vn 0.955856 0.000000 0.293837
vn 0.955856 0.000000 0.293837
vn 0.955856 0.000000 0.293837
vn 0.000000 1.000000 -0.000008
vn 0.000000 1.000000 -0.000008
vn 0.000000 1.000000 -0.000008
vn 0.000000 1.000000 -0.000008
vn 0.000000 1.000000 -0.000008
vn 0.000000 1.000000 -0.000008
vn -0.955856 0.000000 -0.293837
vn -0.955856 0.000000 -0.293837
vn -0.955856 0.000000 -0.293837
vn -0.955856 0.000000 -0.293837
vn -0.955856 0.000000 -0.293837
vn -0.955856 0.000000 -0.293837
vn 0.000001 -1.000000 0.000000
vn 0.000001 -1.000000 0.000000
vn 0.000001 -1.000000 0.000000
vn 0.000001 -1.000000 0.000000
vn 0.000001 -1.000000 0.000000
vn 0.000001 -1.000000 0.000000
vn 0.000000 0.000000 1.000000
vn 0.000000 0.000000 1.000000
vn 0.000000 0.000000 1.000000
vn 0.000000 0.000000 1.000000
vn 0.000000 0.000000 1.000000
vn 0.000000 0.000000 1.000000
vn 0.000000 1.000000 -0.000011
vn 0.000000 1.000000 -0.000011
vn 0.000000 1.000000 -0.000011
vn 0.000000 1.000000 -0.000011
vn 0.000000 1.000000 -0.000011
vn 0.000000 1.000000 -0.000011
vn 0.000000 0.000000 -1.000000
vn 0.000000 0.000000 -1.000000
vn 0.000000 0.000000 -1.000000
vn 0.000000 0.000000 -1.000000
vn 0.000000 0.000000 -1.000000
vn 0.000000 0.000000 -1.000000
vn 0.000000 -1.000000 0.000000
vn 0.000000 -1.000000 0.000000
vn 0.000000 -1.000000 0.000000
vn 0.000000 -1.000000 0.000000
vn 0.000000 -1.000000 0.000000
vn 0.000000 -1.000000 0.000000
vn -0.940327 0.000000 0.340272
vn -0.940327 0.000000 0.340272
vn -0.940327 0.000000 0.340272
vn -0.940327 0.000000 0.340272
vn -0.940327 0.000000 0.340272
vn -0.940327 0.000000 0.340272
vn 0.000000 1.000000 -0.000003
vn 0.000000 1.000000 -0.000003
vn 0.000000 1.000000 -0.000003
vn 0.000000 1.000000 -0.000003
vn 0.000000 1.000000 -0.000003
vn 0.000000 1.000000 -0.000003
vn 0.940327 0.000000 -0.340272
vn 0.940327 0.000000 -0.340272
vn 0.940327 0.000000 -0.340272
vn 0.940327 0.000000 -0.340272
vn 0.940327 0.000000 -0.340272
vn 0.940327 0.000000 -0.340272
vn 0.000000 -1.000000 0.000000
vn 0.000000 -1.000000 0.000000
vn 0.000000 -1.000000 0.000000
vn 0.000000 -1.000000 0.000000
vn 0.000000 -1.000000 0.000000
vn 0.000000 -1.000000 0.000000
vn 0.000000 0.000000 1.000000
vn 0.000000 0.000000 1.000000
vn 0.000000 0.000000 1.000000
vn 0.000000 0.000000 1.000000
vn 0.000000 0.000000 1.000000
vn 0.000000 0.000000 1.000000
vn 0.000000 1.000000 -0.000009
vn 0.000000 1.000000 -0.000009
vn 0.000000 1.000000 -0.000009
vn 0.000000 1.000000 -0.000009
vn 0.000000 1.000000 -0.000009
vn 0.000000 1.000000 -0.000009
vn 0.000000 0.000000 -1.000000
vn 0.000000 0.000000 -1.000000
vn 0.000000 0.000000 -1.000000
vn 0.000000 0.000000 -1.000000
vn 0.000000 0.000000 -1.000000
vn 0.000000 0.000000 -1.000000
s 1
f 1/1/1 2/2/2 3/3/3
f 2/2/2 4/4/4 3/3/3
s 2
f 3/5/5 4/6/6 5/7/7
f 4/6/6 6/8/8 5/7/7
s 3
f 5/9/9 6/10/10 7/11/11
f 6/10/10 8/12/12 7/11/11
s 4
f 7/13/13 8/14/14 1/15/15
f 8/14/14 2/16/16 1/15/15
s 5
f 2/17/17 8/18/18 4/19/19
f 8/18/18 6/20/20 4/19/19
s 6
f 7/21/21 1/22/22 5/23/23
f 1/22/22 3/24/24 5/23/23
s off
f 9/25/25 10/26/26 11/27/27
f 10/26/28 12/28/29 11/27/30
f 11/27/31 12/28/32 13/29/33
f 12/28/34 14/30/35 13/29/36
f 13/29/37 14/30/38 15/31/39
f 14/30/40 16/32/41 15/31/42
f 15/31/43 16/32/44 9/25/45
f 16/32/46 10/26/47 9/25/48
f 17/33/49 18/34/50 19/35/51
f 18/34/52 20/36/53 19/35/54
f 15/31/55 9/25/56 13/29/57
f 9/25/58 11/27/59 13/29/60
f 10/26/61 16/32/62 21/37/63
f 16/32/64 22/38/65 21/37/66
f 16/32/67 14/30/68 22/38/69
f 14/30/70 23/39/71 22/38/72
f 12/28/73 24/40/74 14/30/75
f 14/30/76 24/40/77 23/39/78
f 12/28/79 10/26/80 24/40/81
f 10/26/82 21/37/83 24/40/84
f 21/41/85 22/42/86 25/43/87
f 22/42/88 26/44/89 25/43/90
f 22/42/91 23/45/92 26/44/93
f 23/45/94 27/46/95 26/44/96
f 23/45/97 24/47/98 27/46/99
f 24/47/100 28/48/101 27/46/102
f 24/47/103 21/41/104 28/48/105
f 21/41/106 25/43/107 28/48/108
f 26/44/109 29/49/110 25/43/111
f 25/43/112 29/49/113 30/50/114
f 26/44/115 27/46/116 29/49/117
f 27/46/118 31/51/119 29/49/120
f 27/46/121 28/48/122 31/51/123
f 28/48/124 32/52/125 31/51/126
f 28/48/127 25/43/128 32/52/129
f 25/43/130 30/50/131 32/52/132
f 30/50/133 29/49/134 17/33/135
f 29/49/136 18/34/137 17/33/138
f 29/49/139 31/51/140 18/34/141
f 31/51/142 20/36/143 18/34/144
f 31/51/145 32/52/146 20/36/147
f 32/52/148 19/35/149 20/36/150
f 32/52/151 30/50/152 19/35/153
f 30/50/154 17/33/155 19/35/156
f 33/53/157 34/54/158 35/55/159
f 34/54/160 36/56/161 35/55/162
f 35/55/163 36/56/164 37/57/165
f 36/56/166 38/58/167 37/57/168
f 37/57/169 38/58/170 39/59/171
f 38/58/172 40/60/173 39/59/174
f 39/59/175 40/60/176 33/53/177
f 40/60/178 34/54/179 33/53/180
f 41/61/181 42/62/182 43/63/183
f 42/62/184 44/64/185 43/63/186
f 39/59/187 33/53/188 37/57/189
f 33/53/190 35/55/191 37/57/192
f 34/54/193 40/60/194 45/65/195
f 40/60/196 46/66/197 45/65/198
f 40/60/199 38/58/200 46/66/201
f 38/58/202 47/67/203 46/66/204
f 36/56/205 48/68/206 38/58/207
f 38/58/208 48/68/209 47/67/210
f 36/56/211 34/54/212 48/68/213
f 34/54/214 45/65/215 48/68/216
f 45/69/217 46/70/218 49/71/219
f 46/70/220 50/72/221 49/71/222
f 46/70/223 47/73/224 50/72/225
f 47/73/226 51/74/227 50/72/228
f 47/73/229 48/75/230 51/74/231
f 48/75/232 52/76/233 51/74/234
f 48/75/235 45/69/236 52/76/237
f 45/69/238 49/71/239 52/76/240
f 50/72/241 53/77/242 49/71/243
f 49/71/244 53/77/245 54/78/246
f 50/72/247 51/74/248 53/77/249
f 51/74/250 55/79/251 53/77/252
f 51/74/253 52/76/254 55/79/255
f 52/76/256 56/80/257 55/79/258
f 52/76/259 49/71/260 56/80/261
f 49/71/262 54/78/263 56/80/264
f 54/78/265 53/77/266 41/61/267
f 53/77/268 42/62/269 41/61/270
f 53/77/271 55/79/272 42/62/273
f 55/79/274 44/64/275 42/62/276
f 55/79/277 56/80/278 44/64/279
f 56/80/280 43/63/281 44/64/282
f 56/80/283 54/78/284 43/63/285
f 54/78/286 41/61/287 43/63/288
