# This file uses centimeters as units for non-parametric coordinates.

mtllib warning_speed_fast.mtl
g default
v -0.062222 0.360432 -0.001297
v 0.062191 0.360432 -0.001297
v -0.062222 0.512436 -0.001297
v 0.062191 0.512436 -0.001297
v -0.062222 0.512436 -0.004561
v 0.062191 0.512436 -0.004561
v -0.062222 0.360432 -0.004561
v 0.062191 0.360432 -0.004561
v 0.009199 -0.001788 -0.001023
v 0.005093 -0.001788 -0.001023
v 0.009199 0.489839 -0.001023
v 0.005093 0.489839 -0.001023
v 0.009199 0.489839 0.001023
v 0.005093 0.489839 0.001023
v 0.009199 -0.001788 0.001023
v 0.005093 -0.001788 0.001023
v -0.009019 -0.001788 -0.000936
v -0.009019 -0.001788 0.001109
v -0.009019 0.489839 -0.000936
v -0.009019 0.489839 0.001109
v 0.002362 -0.001788 0.010170
v 0.002362 -0.001788 0.012216
v 0.002362 0.489839 0.012216
v 0.002362 0.489839 0.010170
v -0.001669 -0.001788 0.010170
v -0.001669 -0.001788 0.012216
v -0.001669 0.489839 0.012216
v -0.001669 0.489839 0.010170
v -0.004858 -0.001788 0.001109
v -0.004858 -0.001788 -0.000936
v -0.004858 0.489839 0.001109
v -0.004858 0.489839 -0.000936
v 0.009199 -0.001788 -0.001023
v 0.005093 -0.001788 -0.001023
v 0.009199 0.489839 -0.001023
v 0.005093 0.489839 -0.001023
v 0.009199 0.489839 0.001023
v 0.005093 0.489839 0.001023
v 0.009199 -0.001788 0.001023
v 0.005093 -0.001788 0.001023
v -0.009019 -0.001788 -0.000936
v -0.009019 -0.001788 0.001109
v -0.009019 0.489839 -0.000936
v -0.009019 0.489839 0.001109
v 0.002362 -0.001788 0.010170
v 0.002362 -0.001788 0.012216
v 0.002362 0.489839 0.012216
v 0.002362 0.489839 0.010170
v -0.001669 -0.001788 0.010170
v -0.001669 -0.001788 0.012216
v -0.001669 0.489839 0.012216
v -0.001669 0.489839 0.010170
v -0.004858 -0.001788 0.001109
v -0.004858 -0.001788 -0.000936
v -0.004858 0.489839 0.001109
v -0.004858 0.489839 -0.000936
vt 0.941981 0.801205
vt 0.978174 0.801205
vt 0.941981 0.971476
vt 0.978174 0.971476
vt 0.988318 0.862761
vt 0.988318 0.801205
vt 0.990529 0.862761
vt 0.990529 0.801205
vt 0.923089 0.996039
vt 0.007564 0.996039
vt 0.923089 0.002720
vt 0.007564 0.002720
vt 0.992422 0.862761
vt 0.992422 0.801205
vt 0.994633 0.862761
vt 0.994633 0.801205
vt 0.980109 0.801205
vt 0.982320 0.801205
vt 0.980109 0.971476
vt 0.982320 0.971476
vt 0.984213 0.801205
vt 0.986425 0.801205
vt 0.984213 0.971476
vt 0.986425 0.971476
vt 0.954329 0.008083
vt 0.956092 0.008083
vt 0.954329 0.086628
vt 0.956092 0.086628
vt 0.953441 0.086628
vt 0.954973 0.086628
vt 0.953441 0.008083
vt 0.954973 0.008083
vt 0.967162 0.008083
vt 0.968056 0.008083
vt 0.967162 0.086628
vt 0.968056 0.086628
vt 0.944860 0.008083
vt 0.943939 0.008083
vt 0.943939 0.086628
vt 0.944860 0.086628
vt 0.983400 0.008083
vt 0.982479 0.008083
vt 0.977255 0.008083
vt 0.978035 0.008083
vt 0.982479 0.086628
vt 0.978035 0.086628
vt 0.983400 0.086628
vt 0.977255 0.086628
vt 0.966507 0.008083
vt 0.965371 0.008083
vt 0.966507 0.086628
vt 0.965371 0.086628
vt 0.954329 0.008083
vt 0.956092 0.008083
vt 0.954329 0.086628
vt 0.956092 0.086628
vt 0.953441 0.086628
vt 0.954973 0.086628
vt 0.953441 0.008083
vt 0.954973 0.008083
vt 0.967162 0.008083
vt 0.968056 0.008083
vt 0.967162 0.086628
vt 0.968056 0.086628
vt 0.944860 0.008083
vt 0.943939 0.008083
vt 0.943939 0.086628
vt 0.944860 0.086628
vt 0.983400 0.008083
vt 0.982479 0.008083
vt 0.977255 0.008083
vt 0.978035 0.008083
vt 0.982479 0.086628
vt 0.978035 0.086628
vt 0.983400 0.086628
vt 0.977255 0.086628
vt 0.966507 0.008083
vt 0.965371 0.008083
vt 0.966507 0.086628
vt 0.965371 0.086628
vn 0.000000 0.000000 1.000000
vn 0.000000 0.000000 1.000000
vn 0.000000 0.000000 1.000000
vn 0.000000 0.000000 1.000000
vn 0.000000 0.000000 1.000000
vn 0.000000 0.000000 1.000000
vn 0.000000 1.000000 0.000005
vn 0.000000 1.000000 0.000000
vn 0.000000 1.000000 0.000000
vn 0.000000 1.000000 0.000000
vn 0.000000 1.000000 -0.000005
vn 0.000000 1.000000 0.000000
vn 0.000000 0.000000 -1.000000
vn 0.000000 0.000000 -1.000000
vn 0.000000 0.000000 -1.000000
vn 0.000000 0.000000 -1.000000
vn 0.000000 0.000000 -1.000000
vn 0.000000 0.000000 -1.000000
vn 0.000000 -1.000000 0.000011
vn 0.000000 -1.000000 0.000000
vn 0.000000 -1.000000 0.000000
vn 0.000000 -1.000000 0.000000
vn 0.000000 -1.000000 -0.000011
vn 0.000000 -1.000000 0.000000
vn 1.000000 0.000000 0.000000
vn 1.000000 0.000000 0.000000
vn 1.000000 0.000000 0.000000
vn 1.000000 0.000000 0.000000
vn 1.000000 0.000000 0.000000
vn 1.000000 0.000000 0.000000
vn -1.000000 0.000000 0.000000
vn -1.000000 0.000000 0.000000
vn -1.000000 0.000000 0.000000
vn -1.000000 0.000000 0.000000
vn -1.000000 0.000000 0.000000
vn -1.000000 0.000000 0.000000
vn 0.000000 0.000000 -1.000000
vn 0.000000 0.000000 -1.000000
vn 0.000000 0.000000 -1.000000
vn 0.000000 0.000000 -1.000000
vn 0.000000 0.000000 -1.000000
vn 0.000000 0.000000 -1.000000
vn 0.000000 1.000000 -0.000006
vn 0.000000 1.000000 -0.000006
vn 0.000000 1.000000 -0.000006
vn 0.000000 1.000000 -0.000006
vn 0.000000 1.000000 -0.000006
vn 0.000000 1.000000 -0.000006
vn 0.000000 0.000000 1.000000
vn 0.000000 0.000000 1.000000
vn 0.000000 0.000000 1.000000
vn 0.000000 0.000000 1.000000
vn 0.000000 0.000000 1.000000
vn 0.000000 0.000000 1.000000
vn 0.000000 -1.000000 0.000000
vn 0.000000 -1.000000 0.000000
vn 0.000000 -1.000000 0.000000
vn 0.000000 -1.000000 0.000000
vn 0.000000 -1.000000 0.000000
vn 0.000000 -1.000000 0.000000
vn -1.000000 0.000000 0.000000
vn -1.000000 0.000000 0.000000
vn -1.000000 0.000000 0.000000
vn -1.000000 0.000000 0.000000
vn -1.000000 0.000000 0.000000
vn -1.000000 0.000000 0.000000
vn 1.000000 0.000000 0.000000
vn 1.000000 0.000000 0.000000
vn 1.000000 0.000000 0.000000
vn 1.000000 0.000000 0.000000
vn 1.000000 0.000000 0.000000
vn 1.000000 0.000000 0.000000
vn 0.000000 -1.000000 0.000000
vn 0.000000 -1.000000 0.000000
vn 0.000000 -1.000000 0.000000
vn 0.000000 -1.000000 0.000000
vn 0.000000 -1.000000 0.000000
vn 0.000000 -1.000000 0.000000
vn 0.955856 0.000000 0.293837
vn 0.955856 0.000000 0.293837
vn 0.955856 0.000000 0.293837
vn 0.955856 0.000000 0.293837
vn 0.955856 0.000000 0.293837
vn 0.955856 0.000000 0.293837
vn 0.000000 1.000000 -0.000008
vn 0.000000 1.000000 -0.000008
vn 0.000000 1.000000 -0.000008
vn 0.000000 1.000000 -0.000008
vn 0.000000 1.000000 -0.000008
vn 0.000000 1.000000 -0.000008
vn -0.955856 0.000000 -0.293837
vn -0.955856 0.000000 -0.293837
vn -0.955856 0.000000 -0.293837
vn -0.955856 0.000000 -0.293837
vn -0.955856 0.000000 -0.293837
vn -0.955856 0.000000 -0.293837
vn 0.000001 -1.000000 0.000000
vn 0.000001 -1.000000 0.000000
vn 0.000001 -1.000000 0.000000
vn 0.000001 -1.000000 0.000000
vn 0.000001 -1.000000 0.000000
vn 0.000001 -1.000000 0.000000
vn 0.000000 0.000000 1.000000
vn 0.000000 0.000000 1.000000
vn 0.000000 0.000000 1.000000
vn 0.000000 0.000000 1.000000
vn 0.000000 0.000000 1.000000
vn 0.000000 0.000000 1.000000
vn 0.000000 1.000000 -0.000011
vn 0.000000 1.000000 -0.000011
vn 0.000000 1.000000 -0.000011
vn 0.000000 1.000000 -0.000011
vn 0.000000 1.000000 -0.000011
vn 0.000000 1.000000 -0.000011
vn 0.000000 0.000000 -1.000000
vn 0.000000 0.000000 -1.000000
vn 0.000000 0.000000 -1.000000
vn 0.000000 0.000000 -1.000000
vn 0.000000 0.000000 -1.000000
vn 0.000000 0.000000 -1.000000
vn 0.000000 -1.000000 0.000000
vn 0.000000 -1.000000 0.000000
vn 0.000000 -1.000000 0.000000
vn 0.000000 -1.000000 0.000000
vn 0.000000 -1.000000 0.000000
vn 0.000000 -1.000000 0.000000
vn -0.940327 0.000000 0.340272
vn -0.940327 0.000000 0.340272
vn -0.940327 0.000000 0.340272
vn -0.940327 0.000000 0.340272
vn -0.940327 0.000000 0.340272
vn -0.940327 0.000000 0.340272
vn 0.000000 1.000000 -0.000003
vn 0.000000 1.000000 -0.000003
vn 0.000000 1.000000 -0.000003
vn 0.000000 1.000000 -0.000003
vn 0.000000 1.000000 -0.000003
vn 0.000000 1.000000 -0.000003
vn 0.940327 0.000000 -0.340272
vn 0.940327 0.000000 -0.340272
vn 0.940327 0.000000 -0.340272
vn 0.940327 0.000000 -0.340272
vn 0.940327 0.000000 -0.340272
vn 0.940327 0.000000 -0.340272
vn 0.000000 -1.000000 0.000000
vn 0.000000 -1.000000 0.000000
vn 0.000000 -1.000000 0.000000
vn 0.000000 -1.000000 0.000000
vn 0.000000 -1.000000 0.000000
vn 0.000000 -1.000000 0.000000
vn 0.000000 0.000000 1.000000
vn 0.000000 0.000000 1.000000
vn 0.000000 0.000000 1.000000
vn 0.000000 0.000000 1.000000
vn 0.000000 0.000000 1.000000
vn 0.000000 0.000000 1.000000
vn 0.000000 1.000000 -0.000009
vn 0.000000 1.000000 -0.000009
vn 0.000000 1.000000 -0.000009
vn 0.000000 1.000000 -0.000009
vn 0.000000 1.000000 -0.000009
vn 0.000000 1.000000 -0.000009
vn 0.000000 0.000000 -1.000000
vn 0.000000 0.000000 -1.000000
vn 0.000000 0.000000 -1.000000
vn 0.000000 0.000000 -1.000000
vn 0.000000 0.000000 -1.000000
vn 0.000000 0.000000 -1.000000
vn 0.000000 0.000000 -1.000000
vn 0.000000 0.000000 -1.000000
vn 0.000000 0.000000 -1.000000
vn 0.000000 0.000000 -1.000000
vn 0.000000 0.000000 -1.000000
vn 0.000000 0.000000 -1.000000
vn 0.000000 1.000000 -0.000006
vn 0.000000 1.000000 -0.000006
vn 0.000000 1.000000 -0.000006
vn 0.000000 1.000000 -0.000006
vn 0.000000 1.000000 -0.000006
vn 0.000000 1.000000 -0.000006
vn 0.000000 0.000000 1.000000
vn 0.000000 0.000000 1.000000
vn 0.000000 0.000000 1.000000
vn 0.000000 0.000000 1.000000
vn 0.000000 0.000000 1.000000
vn 0.000000 0.000000 1.000000
vn 0.000000 -1.000000 0.000000
vn 0.000000 -1.000000 0.000000
vn 0.000000 -1.000000 0.000000
vn 0.000000 -1.000000 0.000000
vn 0.000000 -1.000000 0.000000
vn 0.000000 -1.000000 0.000000
vn -1.000000 0.000000 0.000000
vn -1.000000 0.000000 0.000000
vn -1.000000 0.000000 0.000000
vn -1.000000 0.000000 0.000000
vn -1.000000 0.000000 0.000000
vn -1.000000 0.000000 0.000000
vn 1.000000 0.000000 0.000000
vn 1.000000 0.000000 0.000000
vn 1.000000 0.000000 0.000000
vn 1.000000 0.000000 0.000000
vn 1.000000 0.000000 0.000000
vn 1.000000 0.000000 0.000000
vn 0.000000 -1.000000 0.000000
vn 0.000000 -1.000000 0.000000
vn 0.000000 -1.000000 0.000000
vn 0.000000 -1.000000 0.000000
vn 0.000000 -1.000000 0.000000
vn 0.000000 -1.000000 0.000000
vn 0.955856 0.000000 0.293837
vn 0.955856 0.000000 0.293837
vn 0.955856 0.000000 0.293837
vn 0.955856 0.000000 0.293837
vn 0.955856 0.000000 0.293837
vn 0.955856 0.000000 0.293837
vn 0.000000 1.000000 -0.000008
vn 0.000000 1.000000 -0.000008
vn 0.000000 1.000000 -0.000008
vn 0.000000 1.000000 -0.000008
vn 0.000000 1.000000 -0.000008
vn 0.000000 1.000000 -0.000008
vn -0.955856 0.000000 -0.293837
vn -0.955856 0.000000 -0.293837
vn -0.955856 0.000000 -0.293837
vn -0.955856 0.000000 -0.293837
vn -0.955856 0.000000 -0.293837
vn -0.955856 0.000000 -0.293837
vn 0.000001 -1.000000 0.000000
vn 0.000001 -1.000000 0.000000
vn 0.000001 -1.000000 0.000000
vn 0.000001 -1.000000 0.000000
vn 0.000001 -1.000000 0.000000
vn 0.000001 -1.000000 0.000000
vn 0.000000 0.000000 1.000000
vn 0.000000 0.000000 1.000000
vn 0.000000 0.000000 1.000000
vn 0.000000 0.000000 1.000000
vn 0.000000 0.000000 1.000000
vn 0.000000 0.000000 1.000000
vn 0.000000 1.000000 -0.000011
vn 0.000000 1.000000 -0.000011
vn 0.000000 1.000000 -0.000011
vn 0.000000 1.000000 -0.000011
vn 0.000000 1.000000 -0.000011
vn 0.000000 1.000000 -0.000011
vn 0.000000 0.000000 -1.000000
vn 0.000000 0.000000 -1.000000
vn 0.000000 0.000000 -1.000000
vn 0.000000 0.000000 -1.000000
vn 0.000000 0.000000 -1.000000
vn 0.000000 0.000000 -1.000000
vn 0.000000 -1.000000 0.000000
vn 0.000000 -1.000000 0.000000
vn 0.000000 -1.000000 0.000000
vn 0.000000 -1.000000 0.000000
vn 0.000000 -1.000000 0.000000
vn 0.000000 -1.000000 0.000000
vn -0.940327 0.000000 0.340272
vn -0.940327 0.000000 0.340272
vn -0.940327 0.000000 0.340272
vn -0.940327 0.000000 0.340272
vn -0.940327 0.000000 0.340272
vn -0.940327 0.000000 0.340272
vn 0.000000 1.000000 -0.000003
vn 0.000000 1.000000 -0.000003
vn 0.000000 1.000000 -0.000003
vn 0.000000 1.000000 -0.000003
vn 0.000000 1.000000 -0.000003
vn 0.000000 1.000000 -0.000003
vn 0.940327 0.000000 -0.340272
vn 0.940327 0.000000 -0.340272
vn 0.940327 0.000000 -0.340272
vn 0.940327 0.000000 -0.340272
vn 0.940327 0.000000 -0.340272
vn 0.940327 0.000000 -0.340272
vn 0.000000 -1.000000 0.000000
vn 0.000000 -1.000000 0.000000
vn 0.000000 -1.000000 0.000000
vn 0.000000 -1.000000 0.000000
vn 0.000000 -1.000000 0.000000
vn 0.000000 -1.000000 0.000000
vn 0.000000 0.000000 1.000000
vn 0.000000 0.000000 1.000000
vn 0.000000 0.000000 1.000000
vn 0.000000 0.000000 1.000000
vn 0.000000 0.000000 1.000000
vn 0.000000 0.000000 1.000000
vn 0.000000 1.000000 -0.000009
vn 0.000000 1.000000 -0.000009
vn 0.000000 1.000000 -0.000009
vn 0.000000 1.000000 -0.000009
vn 0.000000 1.000000 -0.000009
vn 0.000000 1.000000 -0.000009
vn 0.000000 0.000000 -1.000000
vn 0.000000 0.000000 -1.000000
vn 0.000000 0.000000 -1.000000
vn 0.000000 0.000000 -1.000000
vn 0.000000 0.000000 -1.000000
vn 0.000000 0.000000 -1.000000
s off
g Mesh
usemtl initialShadingGroup
f 1/1/1 2/2/2 3/3/3
f 2/2/4 4/4/5 3/3/6
f 3/5/7 4/6/8 5/7/9
f 4/6/10 6/8/11 5/7/12
f 5/9/13 6/10/14 7/11/15
f 6/10/16 8/12/17 7/11/18
f 7/13/19 8/14/20 1/15/21
f 8/14/22 2/16/23 1/15/24
f 2/17/25 8/18/26 4/19/27
f 8/18/28 6/20/29 4/19/30
f 7/21/31 1/22/32 5/23/33
f 1/22/34 3/24/35 5/23/36
f 9/25/37 10/26/38 11/27/39
f 10/26/40 12/28/41 11/27/42
f 11/27/43 12/28/44 13/29/45
f 12/28/46 14/30/47 13/29/48
f 13/29/49 14/30/50 15/31/51
f 14/30/52 16/32/53 15/31/54
f 15/31/55 16/32/56 9/25/57
f 16/32/58 10/26/59 9/25/60
f 17/33/61 18/34/62 19/35/63
f 18/34/64 20/36/65 19/35/66
f 15/31/67 9/25/68 13/29/69
f 9/25/70 11/27/71 13/29/72
f 10/26/73 16/32/74 21/37/75
f 16/32/76 22/38/77 21/37/78
f 16/32/79 14/30/80 22/38/81
f 14/30/82 23/39/83 22/38/84
f 12/28/85 24/40/86 14/30/87
f 14/30/88 24/40/89 23/39/90
f 12/28/91 10/26/92 24/40/93
f 10/26/94 21/37/95 24/40/96
f 21/41/97 22/42/98 25/43/99
f 22/42/100 26/44/101 25/43/102
f 22/42/103 23/45/104 26/44/105
f 23/45/106 27/46/107 26/44/108
f 23/45/109 24/47/110 27/46/111
f 24/47/112 28/48/113 27/46/114
f 24/47/115 21/41/116 28/48/117
f 21/41/118 25/43/119 28/48/120
f 26/44/121 29/49/122 25/43/123
f 25/43/124 29/49/125 30/50/126
f 26/44/127 27/46/128 29/49/129
f 27/46/130 31/51/131 29/49/132
f 27/46/133 28/48/134 31/51/135
f 28/48/136 32/52/137 31/51/138
f 28/48/139 25/43/140 32/52/141
f 25/43/142 30/50/143 32/52/144
f 30/50/145 29/49/146 17/33/147
f 29/49/148 18/34/149 17/33/150
f 29/49/151 31/51/152 18/34/153
f 31/51/154 20/36/155 18/34/156
f 31/51/157 32/52/158 20/36/159
f 32/52/160 19/35/161 20/36/162
f 32/52/163 30/50/164 19/35/165
f 30/50/166 17/33/167 19/35/168
f 33/53/169 34/54/170 35/55/171
f 34/54/172 36/56/173 35/55/174
f 35/55/175 36/56/176 37/57/177
f 36/56/178 38/58/179 37/57/180
f 37/57/181 38/58/182 39/59/183
f 38/58/184 40/60/185 39/59/186
f 39/59/187 40/60/188 33/53/189
f 40/60/190 34/54/191 33/53/192
f 41/61/193 42/62/194 43/63/195
f 42/62/196 44/64/197 43/63/198
f 39/59/199 33/53/200 37/57/201
f 33/53/202 35/55/203 37/57/204
f 34/54/205 40/60/206 45/65/207
f 40/60/208 46/66/209 45/65/210
f 40/60/211 38/58/212 46/66/213
f 38/58/214 47/67/215 46/66/216
f 36/56/217 48/68/218 38/58/219
f 38/58/220 48/68/221 47/67/222
f 36/56/223 34/54/224 48/68/225
f 34/54/226 45/65/227 48/68/228
f 45/69/229 46/70/230 49/71/231
f 46/70/232 50/72/233 49/71/234
f 46/70/235 47/73/236 50/72/237
f 47/73/238 51/74/239 50/72/240
f 47/73/241 48/75/242 51/74/243
f 48/75/244 52/76/245 51/74/246
f 48/75/247 45/69/248 52/76/249
f 45/69/250 49/71/251 52/76/252
f 50/72/253 53/77/254 49/71/255
f 49/71/256 53/77/257 54/78/258
f 50/72/259 51/74/260 53/77/261
f 51/74/262 55/79/263 53/77/264
f 51/74/265 52/76/266 55/79/267
f 52/76/268 56/80/269 55/79/270
f 52/76/271 49/71/272 56/80/273
f 49/71/274 54/78/275 56/80/276
f 54/78/277 53/77/278 41/61/279
f 53/77/280 42/62/281 41/61/282
f 53/77/283 55/79/284 42/62/285
f 55/79/286 44/64/287 42/62/288
f 55/79/289 56/80/290 44/64/291
f 56/80/292 43/63/293 44/64/294
f 56/80/295 54/78/296 43/63/297
f 54/78/298 41/61/299 43/63/300
